<svg width="20" height="20" viewBox="0 0 20 20" fill="none" xmlns="http://www.w3.org/2000/svg">
<g clip-path="url(#clip0_2_375)">
<path d="M20 9.99973C20 10.989 18.2276 11.686 17.9377 12.5787C17.6371 13.504 18.651 15.1078 18.0903 15.8776C17.5245 16.6555 15.6822 16.184 14.9043 16.7502C14.1342 17.3105 14.0166 19.2111 13.0916 19.5106C12.1989 19.8004 10.9904 18.3413 9.99997 18.3413C9.00951 18.3413 7.80215 19.8004 6.90834 19.5106C5.98309 19.2099 5.86549 17.3095 5.09534 16.7502C4.31774 16.1843 2.47548 16.6558 1.90931 15.8779C1.34896 15.1078 2.36256 13.504 2.06222 12.579C1.77244 11.6863 0 10.9893 0 10C0 9.01072 1.77244 8.31373 2.06228 7.42102C2.36262 6.496 1.34902 4.89222 1.90937 4.12213C2.47554 3.34424 4.3178 3.81573 5.09568 3.24984C5.86555 2.68949 5.98315 0.788668 6.9084 0.489481C7.80111 0.199643 9.00957 1.65876 10 1.65876C10.9904 1.65876 12.1978 0.199643 13.0917 0.489481C14.0167 0.789822 14.1345 2.69059 14.9044 3.24984C15.6823 3.81602 17.5245 3.34453 18.0907 4.12213C18.651 4.89228 17.6372 6.49605 17.9378 7.42102C18.2276 8.31338 20 9.01037 20 9.99973V9.99973Z" fill="#FF3D60"/>
<path d="M9.12665 13.3997C8.83381 13.4001 8.55286 13.2838 8.34599 13.0764L5.8843 10.6148C5.45303 10.1836 5.45292 9.48448 5.88401 9.05322C6.31516 8.62195 7.01428 8.62183 7.44555 9.05293L9.12659 10.7337L12.5564 7.30426C12.9876 6.87299 13.6867 6.87294 14.118 7.30414C14.5493 7.73535 14.5493 8.43453 14.1181 8.8658L9.90747 13.0764C9.70061 13.2838 9.41954 13.4002 9.12665 13.3997V13.3997Z" fill="white"/>
</g>
<defs>
<clipPath id="clip0_2_375">
<rect width="20" height="20" fill="white"/>
</clipPath>
</defs>
</svg>
