<svg width="32" height="32" viewBox="0 0 32 32" fill="none" xmlns="http://www.w3.org/2000/svg">
<path d="M21.4241 26.2781C21.7186 27.1615 21.7186 28.1166 21.4241 29H8.72192C8.42745 28.1166 8.42745 27.1615 8.72192 26.2781H21.4241Z" fill="#E6E5E0"/>
<path d="M8.72192 9.03943H21.4241V10.854H8.72192V9.03943Z" fill="#FFC864"/>
<path d="M8.72192 10.854H21.4241V26.2781H8.72192V10.854Z" fill="#ECAB2C"/>
<path d="M15.9803 13.5759C15.9803 13.0748 15.5741 12.6686 15.073 12.6686C14.5719 12.6686 14.1657 13.0748 14.1657 13.5759V23.5562C14.1657 24.0572 14.5719 24.4635 15.073 24.4635C15.5741 24.4635 15.9803 24.0572 15.9803 23.5562V13.5759Z" fill="#D78E0C"/>
<path d="M12.3511 13.5759C12.3511 13.0748 11.9449 12.6686 11.4438 12.6686C10.9427 12.6686 10.5365 13.0748 10.5365 13.5759V23.5562C10.5365 24.0572 10.9427 24.4635 11.4438 24.4635C11.9449 24.4635 12.3511 24.0572 12.3511 23.5562V13.5759Z" fill="#D78E0C"/>
<path d="M19.6095 13.5759C19.6095 13.0748 19.2033 12.6686 18.7022 12.6686C18.2011 12.6686 17.7949 13.0748 17.7949 13.5759V23.5562C17.7949 24.0572 18.2011 24.4635 18.7022 24.4635C19.2033 24.4635 19.6095 24.0572 19.6095 23.5562V13.5759Z" fill="#D78E0C"/>
<path d="M21.4241 10.854H23.4655C24.3679 10.854 25.2333 11.2125 25.8713 11.8505C26.5094 12.4886 26.8679 13.354 26.8679 14.2564V21.9684C26.8679 22.8708 26.5094 23.7362 25.8713 24.3743C25.2333 25.0123 24.3679 25.3708 23.4655 25.3708H21.4241V22.6489H23.0118C23.3126 22.6489 23.6011 22.5294 23.8138 22.3167C24.0265 22.104 24.146 21.8155 24.146 21.5148V14.71C24.146 14.4092 24.0265 14.1208 23.8138 13.9081C23.6011 13.6954 23.3126 13.5759 23.0118 13.5759H21.4241V10.854Z" fill="#E6E5E0"/>
<path d="M9.62919 9.03943C9.86982 9.03943 10.1006 9.13502 10.2708 9.30517C10.4409 9.47532 10.5365 9.7061 10.5365 9.94673C10.5365 10.2446 10.5952 10.5396 10.7092 10.8148C10.8231 11.0899 10.9902 11.34 11.2008 11.5506C11.6262 11.976 12.2032 12.215 12.8047 12.215C13.1026 12.215 13.3976 12.1563 13.6728 12.0423C13.948 11.9283 14.198 11.7612 14.4086 11.5506C14.6193 11.34 14.7863 11.0899 14.9003 10.8148C15.0143 10.5396 15.073 10.2446 15.073 9.94673C15.073 9.7061 15.1686 9.47532 15.3387 9.30517C15.5089 9.13502 15.7397 9.03943 15.9803 9.03943H21.4241L21.9707 7.67281C22.0841 7.38926 22.1362 7.08491 22.1235 6.77979C22.1108 6.47467 22.0336 6.1757 21.897 5.90256C21.7497 5.60803 21.5371 5.35101 21.2754 5.15113C21.0137 4.95124 20.7098 4.81375 20.3869 4.74916L20.3616 4.74411C19.5753 4.58688 18.8531 4.20041 18.2861 3.63341C18.0021 3.34942 17.6447 3.15013 17.2538 3.05785C16.863 2.96558 16.4541 2.98397 16.0731 3.11097L15.7973 3.20289C15.0326 3.45783 14.2058 3.45783 13.441 3.20289C12.9603 3.04268 12.4494 2.99435 11.9472 3.0616C11.4451 3.12884 10.9649 3.30989 10.5433 3.59093L9.60084 4.21941C9.32014 4.40653 9.00551 4.53685 8.67472 4.60303C8.13205 4.71158 7.62503 4.95378 7.19958 5.3077C6.77413 5.66163 6.44368 6.11609 6.23817 6.62993C6.08089 7.02292 6.00006 7.44232 6 7.86561V12.215C6 12.5759 6.14338 12.9221 6.39861 13.1773C6.65384 13.4325 7 13.5759 7.36095 13.5759C7.72189 13.5759 8.06806 13.4325 8.32328 13.1773C8.57851 12.9221 8.7219 12.5759 8.7219 12.215V9.94673C8.7219 9.7061 8.81749 9.47532 8.98764 9.30517C9.15779 9.13502 9.38856 9.03943 9.62919 9.03943Z" fill="#ECEBE6"/>
<path d="M8.26825 7.2248C8.5188 7.2248 8.7219 7.0217 8.7219 6.77115C8.7219 6.52061 8.5188 6.3175 8.26825 6.3175C8.01771 6.3175 7.81461 6.52061 7.81461 6.77115C7.81461 7.0217 8.01771 7.2248 8.26825 7.2248Z" fill="#AEADAA"/>
<path d="M11.4438 5.86396C11.6943 5.86396 11.8974 5.66086 11.8974 5.41031C11.8974 5.15977 11.6943 4.95667 11.4438 4.95667C11.1932 4.95667 10.9901 5.15977 10.9901 5.41031C10.9901 5.66086 11.1932 5.86396 11.4438 5.86396Z" fill="#AEADAA"/>
<path d="M12.3511 8.13215C12.6016 8.13215 12.8047 7.92905 12.8047 7.6785C12.8047 7.42796 12.6016 7.22485 12.3511 7.22485C12.1005 7.22485 11.8974 7.42796 11.8974 7.6785C11.8974 7.92905 12.1005 8.13215 12.3511 8.13215Z" fill="#AEADAA"/>
<path d="M14.1657 7.2248C14.4162 7.2248 14.6193 7.0217 14.6193 6.77115C14.6193 6.52061 14.4162 6.3175 14.1657 6.3175C13.9151 6.3175 13.712 6.52061 13.712 6.77115C13.712 7.0217 13.9151 7.2248 14.1657 7.2248Z" fill="#AEADAA"/>
<path d="M16.8876 5.86396C17.1381 5.86396 17.3412 5.66086 17.3412 5.41031C17.3412 5.15977 17.1381 4.95667 16.8876 4.95667C16.637 4.95667 16.4339 5.15977 16.4339 5.41031C16.4339 5.66086 16.637 5.86396 16.8876 5.86396Z" fill="#AEADAA"/>
<path d="M21.4241 10.854H22.785V13.5759H21.4241V10.854Z" fill="#AEADAA"/>
<path d="M21.4241 22.6489H22.785V25.3708H21.4241V22.6489Z" fill="#AEADAA"/>
</svg>
