<svg width="32" height="32" viewBox="0 0 32 32" fill="none" xmlns="http://www.w3.org/2000/svg">
<path d="M23.6829 31.0001C23.4401 31.0001 23.2434 30.7981 23.2434 30.5489V26.173C23.2434 25.9238 23.4401 25.7218 23.6829 25.7218C23.9256 25.7218 24.1223 25.9238 24.1223 26.173V30.5489C24.1223 30.7981 23.9256 31.0001 23.6829 31.0001Z" fill="#B5ADB6"/>
<path d="M23.6803 27.1746C23.1415 27.1746 22.7047 26.7261 22.7047 26.173V25.1713L23.6803 24.1763L24.6559 25.1713V26.173C24.6559 26.7261 24.2192 27.1746 23.6803 27.1746Z" fill="#918291"/>
<path d="M12.5854 3.04469C9.91787 0.305981 5.58545 0.318494 2.93314 3.08229C0.301753 5.82424 0.378686 10.2575 3.02982 12.9794L11.3834 21.556C12.0473 22.2376 13.1235 22.2376 13.7874 21.556L22.141 12.9793C24.7921 10.2575 24.8691 5.82424 22.2377 3.08223C19.5854 0.318494 15.2529 0.305981 12.5854 3.04469Z" fill="#FF718A"/>
<path d="M22.1981 3.04128C21.8434 2.67756 21.4591 2.36269 21.0534 2.09619C21.4169 2.68159 21.6853 3.31121 21.8598 3.96248C22.0428 4.64474 21.6526 5.34889 20.9948 5.56005C17.3277 6.73717 14.6588 10.2557 14.6588 14.4036C14.6588 14.817 14.6854 15.2241 14.737 15.6233C14.7891 16.0268 14.65 16.4315 14.3697 16.7193L11.7232 19.4365C11.0593 20.1181 9.98305 20.1181 9.31918 19.4365L11.3836 21.5561C12.0475 22.2377 13.1237 22.2377 13.7876 21.5561L22.1431 12.9774C24.7895 10.2603 24.8465 5.75634 22.1981 3.04128Z" fill="#FF3D60"/>
<path d="M15.9495 9.63289H13.3567C12.9713 9.63289 12.6221 9.86576 12.4654 10.2272L11.5125 12.425L8.80662 5.27088C8.65697 4.87534 8.28109 4.61948 7.86771 4.6323C7.45457 4.64511 7.09416 4.92388 6.96807 5.32803L3.63139 16.0248H1.48779C1.21838 16.0248 1 16.249 1 16.5256V17.5273C1 17.8039 1.21838 18.0281 1.48779 18.0281H4.34336C4.76752 18.0281 5.14311 17.7467 5.27248 17.3319L7.98555 8.6342L10.5416 15.3921C10.6842 15.7691 11.0336 16.021 11.4274 16.0308C11.8235 16.0411 12.1821 15.8063 12.3423 15.4369L13.9903 11.6362H15.0698L16.5496 10.8977L15.9495 9.63289Z" fill="#FFE177"/>
<path d="M24.9026 25.1715H22.4636C22.0594 25.1715 21.7318 24.8352 21.7318 24.4203V20.6641H25.6343V24.4203C25.6343 24.8352 25.3067 25.1715 24.9026 25.1715Z" fill="#CBC4CC"/>
<path d="M21.7318 23.3221C22.36 23.4669 23.0129 23.5438 23.6831 23.5438C24.3532 23.5438 25.0061 23.4669 25.6343 23.3221V20.6641H21.7318V23.3221Z" fill="#B5ADB6"/>
<path d="M15.0684 11.6361H19.0375V9.63281H15.9481C15.5816 10.2567 15.2846 10.9282 15.0684 11.6361Z" fill="#FFD15B"/>
<path d="M23.6822 6.89111C19.6411 6.89111 16.3651 10.2546 16.3651 14.4036C16.3651 17.7729 18.5256 20.6241 21.5017 21.5767L23.3697 20.4072H24.6578L26.5033 21.337C29.1437 20.2032 30.9992 17.526 30.9992 14.4036C30.9992 10.2546 27.7233 6.89111 23.6822 6.89111Z" fill="#62DBFB"/>
<path d="M27.6776 8.10901C28.4274 9.28829 28.8637 10.6969 28.8637 12.2103C28.8637 16.3593 25.5878 19.7227 21.5467 19.7227C20.0726 19.7227 18.7006 19.2748 17.552 18.5049C18.858 20.5585 21.1159 21.9161 23.6829 21.9161C27.724 21.916 31 18.5526 31 14.4036C31 11.768 29.6778 9.44982 27.6776 8.10901Z" fill="#01D0FB"/>
<path d="M23.6833 19.9126C26.6468 19.9126 29.0491 17.4461 29.0491 14.4035C29.0491 11.3609 26.6468 8.89441 23.6833 8.89441C20.7198 8.89441 18.3174 11.3609 18.3174 14.4035C18.3174 17.4461 20.7198 19.9126 23.6833 19.9126Z" fill="#EAF6FF"/>
<path d="M23.6833 14.9901C23.4405 14.9901 23.2438 14.7881 23.2438 14.5389V10.8982C23.2438 10.649 23.4405 10.447 23.6833 10.447C23.926 10.447 24.1227 10.649 24.1227 10.8982V14.5389C24.1227 14.7881 23.926 14.9901 23.6833 14.9901Z" fill="#CBC4CC"/>
<path d="M23.6803 15.4052C24.2191 15.4052 24.6559 14.9568 24.6559 14.4036C24.6559 13.8504 24.2191 13.402 23.6803 13.402C23.1415 13.402 22.7047 13.8504 22.7047 14.4036C22.7047 14.9568 23.1415 15.4052 23.6803 15.4052Z" fill="#62DBFB"/>
</svg>
