<svg width="32" height="32" viewBox="0 0 32 32" fill="none" xmlns="http://www.w3.org/2000/svg">
<path d="M16 29C23.1797 29 29 23.1797 29 16C29 8.8203 23.1797 3 16 3C8.8203 3 3 8.8203 3 16C3 23.1797 8.8203 29 16 29Z" fill="#E24C4B"/>
<path d="M28.9999 16C28.9999 23.15 23.1499 29 15.9999 29C11.8562 29 8.19997 27.1313 5.84369 24.125C8.03743 25.9125 10.8812 26.9688 13.9687 26.9688C21.1187 26.9688 26.9687 21.1188 26.9687 13.9688C26.9687 10.8813 25.9124 8.03756 24.1249 5.84381C27.1312 8.19997 28.9999 11.8562 28.9999 16Z" fill="#D1403F"/>
<path d="M21.9312 21.9312C21.4438 22.4187 20.6312 22.4187 20.1437 21.9312L16 17.7875L11.8563 21.9312C11.3688 22.4187 10.5563 22.4187 10.0688 21.9312C9.58132 21.4437 9.58132 20.6312 10.0688 20.1437L14.2125 16L10.0688 11.8563C9.58132 11.3688 9.58132 10.5562 10.0688 10.0688C10.5563 9.58129 11.3688 9.58129 11.8563 10.0688L16 14.2125L20.1437 10.0688C20.6312 9.58129 21.4438 9.58129 21.9312 10.0688C22.4187 10.5562 22.4187 11.3688 21.9312 11.8563L17.7875 16L21.9312 20.1437C22.4187 20.6312 22.4187 21.4437 21.9312 21.9312Z" fill="white"/>
</svg>
