<svg width="32" height="32" viewBox="0 0 32 32" fill="none" xmlns="http://www.w3.org/2000/svg">
<path d="M16 3.00001C8.82004 3.00001 3 8.82055 3 16C3 23.1795 8.82004 29 16 29C23.18 29 29 23.1795 29 16C29 8.82055 23.1794 3.00001 16 3.00001Z" fill="#57B236"/>
<path d="M3.00001 16C2.99678 18.1493 3.52891 20.2656 4.54833 22.1577C5.84675 22.539 7.19312 22.732 8.54634 22.7311C16.3616 22.7311 22.697 16.3956 22.697 8.58036C22.6978 7.20651 22.4985 5.83987 22.1054 4.52344C20.2267 3.521 18.1295 2.99771 16 3.00001C8.82005 3.00001 3.00001 8.82055 3.00001 16Z" fill="#6FBA47"/>
<path d="M23.4141 13.8479L15.5999 22.0536C15.387 22.2771 15.1313 22.4552 14.848 22.5774C14.5646 22.6995 14.2595 22.7632 13.951 22.7646H13.9403C13.6335 22.7646 13.3298 22.7031 13.0472 22.5835C12.7647 22.4639 12.509 22.2887 12.2955 22.0684L8.14923 17.7966C7.93499 17.5816 7.7656 17.3261 7.65089 17.0451C7.53617 16.7641 7.47842 16.4631 7.48098 16.1595C7.48353 15.856 7.54635 15.556 7.66579 15.2769C7.78522 14.9979 7.95889 14.7453 8.17672 14.5339C8.39454 14.3225 8.65219 14.1564 8.9347 14.0454C9.21721 13.9344 9.51896 13.8806 9.82244 13.8871C10.1259 13.8936 10.4251 13.9604 10.7025 14.0834C10.98 14.2065 11.2303 14.3835 11.4388 14.604L13.9241 17.1644L20.0935 10.6863C20.3011 10.4682 20.5496 10.2932 20.8248 10.1712C21.1001 10.0492 21.3966 9.98264 21.6976 9.97526C21.9985 9.96788 22.298 10.0199 22.5789 10.1282C22.8598 10.2366 23.1166 10.3992 23.3346 10.6068C23.5526 10.8144 23.7276 11.0629 23.8496 11.3381C23.9716 11.6133 24.0382 11.9099 24.0456 12.2109C24.053 12.5118 24.001 12.8113 23.8926 13.0922C23.7843 13.3731 23.6217 13.6299 23.4141 13.8479Z" fill="white"/>
</svg>
