<svg width="32" height="32" viewBox="0 0 32 32" fill="none" xmlns="http://www.w3.org/2000/svg">
<path d="M16 29C23.1797 29 29 23.1797 29 16C29 8.8203 23.1797 3 16 3C8.8203 3 3 8.8203 3 16C3 23.1797 8.8203 29 16 29Z" fill="#FFD93B"/>
<path d="M29 16C29 23.1825 23.1784 29 16 29C11.9131 29 8.265 27.115 5.88031 24.1616C8.11062 25.9653 10.9503 27.0419 14.0419 27.0419C21.2203 27.0419 27.0419 21.2244 27.0419 14.0419C27.0419 10.9503 25.9653 8.11062 24.1616 5.88031C27.1109 8.265 29 11.9131 29 16Z" fill="#F4C534"/>
<path d="M21.8175 20.4891C21.8175 20.8799 21.5015 21.1959 21.1106 21.1959H10.8886C10.5018 21.1959 10.1817 20.8799 10.1817 20.4891C10.1817 20.0982 10.5018 19.7822 10.8886 19.7822H21.1106C21.5023 19.783 21.8175 20.0982 21.8175 20.4891Z" fill="#3E4347"/>
<path d="M11.862 15.4532C12.9317 15.4532 13.799 14.586 13.799 13.5162C13.799 12.4464 12.9317 11.5792 11.862 11.5792C10.7922 11.5792 9.92496 12.4464 9.92496 13.5162C9.92496 14.586 10.7922 15.4532 11.862 15.4532Z" fill="#3E4347"/>
<path d="M12.9464 12.5284C12.7787 12.3031 12.5246 12.2083 12.3788 12.3168C12.2329 12.4253 12.2507 12.696 12.4184 12.9213C12.5861 13.1467 12.8402 13.2415 12.9861 13.133C13.1319 13.0245 13.1141 12.7538 12.9464 12.5284Z" fill="#5A5F63"/>
<path d="M20.1356 15.4532C21.2054 15.4532 22.0726 14.586 22.0726 13.5162C22.0726 12.4464 21.2054 11.5792 20.1356 11.5792C19.0658 11.5792 18.1986 12.4464 18.1986 13.5162C18.1986 14.586 19.0658 15.4532 20.1356 15.4532Z" fill="#3E4347"/>
<path d="M21.2196 12.5305C21.0519 12.3052 20.7977 12.2105 20.6519 12.3189C20.5062 12.4274 20.5239 12.6981 20.6916 12.9234C20.8593 13.1488 21.1135 13.2435 21.2592 13.135C21.405 13.0265 21.3873 12.7559 21.2196 12.5305Z" fill="#5A5F63"/>
</svg>
