<svg width="32" height="32" viewBox="0 0 32 32" fill="none" xmlns="http://www.w3.org/2000/svg">
<path d="M28.231 22.6908C28.1823 26.1908 25.2858 29.0244 21.7853 28.9998C20.4478 28.9903 19.2077 28.5706 18.1845 27.86C17.4779 27.3686 16.5859 27.228 15.7599 27.4695C14.7109 27.7771 13.3471 28.0332 11.7557 27.9861C10.2265 27.9407 5.82998 27.0762 4.80959 25.9498C4.22851 25.3088 3.94049 24.4543 4.01502 23.5925L5.67533 4.38986C5.74481 3.5852 6.43068 2.97554 7.23758 3.00075L10.2438 3.09433C11.1281 3.12179 11.8022 3.89619 11.7086 4.77594L11.5158 6.58419C11.4346 7.34346 10.8026 7.92886 10.0388 7.94304C9.42187 7.95447 9.42568 7.95217 9.34113 7.94752L9.34001 7.96713C8.51108 13.4861 12.8277 13.2319 13.2462 18.8732C14.3991 18.1766 15.7327 17.9137 17.1602 18.2383L17.1647 18.2193C21.2675 13.9089 28.31 16.9577 28.231 22.6908Z" fill="#F8DBCD"/>
<path d="M23.5024 17.3308C21.3738 17.3914 19.7882 18.6461 19.1217 19.1589C18.96 19.2833 18.7538 19.336 18.5528 19.3012C17.5757 19.1317 16.6396 19.2376 15.7814 19.5717C15.3548 19.7376 14.8838 19.4822 14.7897 19.0343C14.6906 18.5625 15.0078 18.1735 15.4184 18.1285C15.9869 18.0662 16.5635 18.1028 17.1602 18.2383L17.1647 18.2193C18.9266 16.3682 21.4162 15.8164 23.6103 16.4511C24.1038 16.5939 24.016 17.3162 23.5024 17.3308Z" fill="#FFC6A9"/>
<path d="M10.3168 3.09831C11.0015 3.15199 10.9325 4.18399 10.246 4.16269L8.91853 4.12145C8.11163 4.09624 7.42577 4.7059 7.35628 5.51056C7.35628 5.51056 5.69474 24.7281 5.69412 24.7356C5.628 25.5722 4.47374 25.7542 4.17782 24.9689C4.03196 24.5818 3.96864 24.128 4.01492 23.5925L5.67524 4.38986C5.74472 3.5852 6.43059 2.97554 7.23749 3.00075C7.23754 3.0007 10.2926 3.09641 10.3168 3.09831Z" fill="#FFC6A9"/>
<path d="M26.4024 9.34858L22.4907 13.8514C22.3465 14.0174 22.0744 13.8981 22.0987 13.6795L22.3336 11.5743C22.3484 11.4415 22.2444 11.3253 22.1108 11.3253H19.8706C19.7334 11.3253 19.6284 11.2032 19.6488 11.0677L20.4701 5.6194C20.4866 5.50974 20.5807 5.42877 20.6916 5.42877H23.8649C24.0046 5.42877 24.1103 5.55519 24.0856 5.6927L23.5414 8.7136C23.5166 8.85111 23.6223 8.97746 23.762 8.97746H26.2332C26.4254 8.97746 26.5284 9.20351 26.4024 9.34858Z" fill="#FFBD06"/>
<path d="M10.5414 23.482C10.2763 23.5106 10.0449 23.3028 10.0449 23.036C10.0449 22.8079 10.2169 22.6152 10.4439 22.5905C12.7138 22.3434 13.3846 20.7268 13.2462 18.8731C13.3259 18.8249 13.4087 18.7774 13.4946 18.7312C13.7879 18.5734 14.1457 18.7793 14.1558 19.1122C14.2314 21.608 12.9272 23.2228 10.5414 23.482Z" fill="#C79A83"/>
<path d="M20.0415 19.2003C19.8902 19.3836 19.6235 19.4149 19.4307 19.2754C18.7521 18.7857 17.9721 18.4231 17.1602 18.2382L17.1647 18.2191C17.3048 18.0719 17.4958 17.8844 17.7385 17.6827C17.8607 17.5811 18.0282 17.551 18.1776 17.605C18.8076 17.8331 19.4107 18.1536 19.9619 18.5531C20.1709 18.7044 20.2062 19.002 20.0415 19.2003Z" fill="#C79A83"/>
<path d="M9.34104 7.94749C9.33728 8.01272 9.32165 8.05743 9.28892 8.3617C9.25872 8.64233 8.97956 8.82237 8.70941 8.74044C8.03212 8.53502 7.62536 8.07447 7.39943 7.72896C7.25486 7.50874 7.33331 7.21231 7.56585 7.0896C7.7687 6.98257 8.02198 7.04365 8.14693 7.23585C8.33913 7.53054 8.6972 7.90827 9.34104 7.94749Z" fill="#C79A83"/>
<path d="M6.29157 21.0456C6.02686 21.0456 5.82194 20.8193 5.84447 20.5587L6.17507 16.736C6.19648 16.4894 6.41272 16.3067 6.66033 16.328C6.90694 16.3493 7.08962 16.5666 7.06832 16.8132L6.73772 20.6359C6.71749 20.8694 6.5217 21.0456 6.29157 21.0456Z" fill="white"/>
<path d="M6.79204 15.2543C6.52727 15.2543 6.32235 15.028 6.34493 14.7674L6.36343 14.5539C6.38477 14.3073 6.60219 14.1252 6.84869 14.146C7.09535 14.1674 7.27797 14.3847 7.25656 14.6313L7.23807 14.8448C7.2179 15.0783 7.02211 15.2543 6.79204 15.2543Z" fill="white"/>
<path d="M24.0856 5.69264L23.9978 6.18054C23.9594 6.39409 23.7736 6.54947 23.5566 6.54947H21.8122C21.7012 6.54947 21.6071 6.63072 21.5908 6.73999L20.9569 10.9439C20.9239 11.1632 20.7354 11.3253 20.5136 11.3253H19.8705C19.7332 11.3253 19.6286 11.2033 19.6487 11.0677L20.47 5.6194C20.4863 5.51013 20.5806 5.42877 20.6915 5.42877H23.8649C24.005 5.42877 24.1103 5.55535 24.0856 5.69264Z" fill="#FFF0A6"/>
</svg>
