<svg width="32" height="32" viewBox="0 0 32 32" fill="none" xmlns="http://www.w3.org/2000/svg">
<path d="M10.9882 19.2729L9.57895 20.0593L8.51112 21.0084L7.9703 22.1878L6.93777 22.4069L4.60102 24.4839L3.63917 25.4278C2.97597 26.0786 2.80753 27.0715 3.2345 27.8754C3.2345 27.8754 3.63511 28.2065 3.80731 28.3702C4.70903 29.2274 5.95454 28.5498 6.73586 27.5819L12.3162 20.5258L10.9882 19.2729Z" fill="#6F6571"/>
<path d="M12.7056 20.8936L11.7115 22.1188L10.8256 23.2107L9.71517 23.7234L9.49995 24.8448L6.77143 28.2083C6.34888 28.7317 5.73234 29 5.11271 29C4.58718 29 4.05956 28.807 3.64539 28.4138C3.47334 28.2501 3.33644 28.0684 3.23447 27.8754C3.54824 28.0438 3.89432 28.1267 4.23943 28.1267C4.85911 28.1267 5.47559 27.8584 5.89814 27.335L10.6077 21.5196C10.6927 21.4147 10.6843 21.2621 10.5874 21.1681C10.2513 20.8424 9.89224 20.4553 9.57907 20.0595L10.7337 19.033L11.8041 20.0428L12.7056 20.8936Z" fill="#5D5360"/>
<path d="M8.51125 21.0086L6.93774 22.4069L9.24631 24.6033L10.5154 22.9154L8.51125 21.0086Z" fill="#F9F8F9"/>
<path d="M10.8257 23.2107L9.50013 24.8448L8.60486 23.9929L9.92893 22.3578L10.8257 23.2107Z" fill="#E5E5E5"/>
<path d="M8.2522 13.0925C8.2522 15.5082 9.09801 17.7256 10.5087 19.463C12.6194 21.4775 15.1628 22.4444 18.3103 22.4444C23.8652 22.4444 27.8534 18.6665 27.8534 13.0925C27.8534 9.95718 26.7805 7.6346 24.6574 5.26322C22.9188 3.82347 20.7405 3 18.3103 3C12.7553 3 8.2522 7.51856 8.2522 13.0925Z" fill="#807782"/>
<path d="M28.3683 13.0924C28.3683 18.6664 23.8652 23.185 18.3102 23.185C15.1629 23.185 12.3529 21.7342 10.5088 19.4629C12.2401 20.8785 14.4498 21.7274 16.8576 21.7274C22.4126 21.7274 26.9157 17.2089 26.9157 11.6354C26.9157 9.21886 26.0692 7.00058 24.6574 5.26331C26.9219 7.11372 28.3683 9.9334 28.3683 13.0924Z" fill="#6F6571"/>
<path d="M18.3102 21.1353C22.737 21.1353 26.3257 17.5344 26.3257 13.0924C26.3257 8.65048 22.737 5.04956 18.3102 5.04956C13.8834 5.04956 10.2947 8.65048 10.2947 13.0924C10.2947 17.5344 13.8834 21.1353 18.3102 21.1353Z" fill="#F2F2F2"/>
<path d="M4.9681 27.4192C4.86923 27.4192 4.77031 27.382 4.69404 27.3075C4.53915 27.1561 4.53631 26.9078 4.68769 26.7529L6.24586 25.1585C6.39729 25.0036 6.64556 25.0007 6.80049 25.1521C6.95537 25.3035 6.95822 25.5518 6.80684 25.7067L5.24867 27.3011C5.17179 27.3797 5.06997 27.4192 4.9681 27.4192Z" fill="#5D5360"/>
<path d="M18.4545 19.5266C18.9063 19.5266 19.2725 19.161 19.2725 18.71C19.2725 18.259 18.9063 17.8934 18.4545 17.8934C18.0028 17.8934 17.6366 18.259 17.6366 18.71C17.6366 19.161 18.0028 19.5266 18.4545 19.5266Z" fill="#FEE07D"/>
<path d="M18.3919 16.2741C17.9892 16.284 17.6549 15.9661 17.645 15.5641L17.6344 15.1329C17.6123 14.2326 18.0602 13.3864 18.8326 12.8694C19.1337 12.6679 19.299 12.3185 19.2642 11.9576C19.2191 11.4909 18.833 11.1132 18.3661 11.0788C17.8366 11.0402 17.3741 11.4188 17.3142 11.9414C17.2683 12.3409 16.9065 12.6276 16.5066 12.5819C16.1065 12.5361 15.8193 12.1751 15.8652 11.7756C16.0146 10.4741 17.1601 9.52934 18.4732 9.62664C19.6395 9.7123 20.6037 10.6544 20.7159 11.818C20.8023 12.7126 20.3919 13.579 19.6448 14.079C19.2891 14.317 19.0827 14.6977 19.0925 15.0973L19.1031 15.5284C19.1129 15.9304 18.7945 16.2642 18.3919 16.2741Z" fill="#FEE07D"/>
<path d="M18.3492 8.54629C18.1325 8.54629 17.957 8.37074 17.957 8.1541V7.48618C17.957 7.26954 18.1325 7.09399 18.3492 7.09399C18.5658 7.09399 18.7413 7.26954 18.7413 7.48618V8.1541C18.7413 8.37074 18.5657 8.54629 18.3492 8.54629Z" fill="#FED062"/>
<path d="M15.9473 9.13302C15.8117 9.13302 15.6799 9.06269 15.6073 8.93685L14.7511 7.45389C14.6428 7.2663 14.7071 7.02646 14.8947 6.91814C15.0822 6.80988 15.3221 6.87407 15.4304 7.0617L16.2866 8.54467C16.3949 8.73225 16.3306 8.97209 16.143 9.08041C16.0813 9.11606 16.0138 9.13302 15.9473 9.13302Z" fill="#FED062"/>
<path d="M13.8322 10.6521C13.7657 10.6521 13.6982 10.6351 13.6364 10.5995L13.058 10.2656C12.8704 10.1572 12.8061 9.9174 12.9145 9.72982C13.0227 9.54218 13.2625 9.47794 13.4502 9.58626L14.0286 9.92019C14.2162 10.0285 14.2805 10.2683 14.1722 10.4559C14.0995 10.5818 13.9677 10.6521 13.8322 10.6521Z" fill="#FED062"/>
<path d="M20.751 9.13304C20.6845 9.13304 20.6171 9.11608 20.5553 9.08043C20.3677 8.97211 20.3034 8.73227 20.4117 8.54469L21.2679 7.06172C21.3762 6.87409 21.6159 6.80985 21.8036 6.91817C21.9912 7.02648 22.0555 7.26632 21.9472 7.45391L21.091 8.93687C21.0184 9.06271 20.8866 9.13304 20.751 9.13304Z" fill="#FED062"/>
<path d="M22.8661 10.6521C22.7305 10.6521 22.5987 10.5817 22.5261 10.4559C22.4178 10.2683 22.4821 10.0285 22.6697 9.92017L23.2481 9.58623C23.4356 9.47797 23.6755 9.54216 23.7838 9.72979C23.8921 9.91738 23.8278 10.1572 23.6402 10.2655L23.0618 10.5995C23.0001 10.6351 22.9326 10.6521 22.8661 10.6521Z" fill="#FED062"/>
</svg>
