<svg width="32" height="32" viewBox="0 0 32 32" fill="none" xmlns="http://www.w3.org/2000/svg">
<path d="M23.4877 25.7442L28.7198 22.6994C28.9467 22.5673 29.1969 22.5034 29.4444 22.5034C29.8654 22.5034 30.2793 22.6872 30.561 23.0327C31.0793 23.6658 30.9671 24.6018 30.3154 25.0957L22.5175 30.9944C21.7065 31.6075 20.7176 31.9395 19.7009 31.9395H18.1505C17.5322 31.9395 16.9205 31.8163 16.3499 31.5778L10.6175 29.1809H6.25957L2.67908 29.1919V23.0218H6.25957H7.76809C8.82277 21.9671 10.2533 21.3746 11.7444 21.3746H11.8733C13.3645 21.3746 14.7943 21.9671 15.849 23.0218L16.1804 23.3525H20.4429C21.1114 23.3525 21.7439 23.5614 22.2673 23.9262C22.7902 24.2918 23.204 24.8146 23.4342 25.4418C23.4696 25.5385 23.4877 25.6411 23.4877 25.7442Z" fill="#FFE7E3"/>
<path d="M30.4001 22.8654C30.3728 22.8895 30.3448 22.9131 30.3154 22.9354L22.5175 28.8341C21.7065 29.4472 20.7176 29.7792 19.7009 29.7792H18.1505C17.5322 29.7792 16.9205 29.656 16.3499 29.4175L10.7728 27.0855C10.6703 27.0427 10.5603 27.0206 10.4493 27.0206H6.25957L2.67908 27.0316V29.1919L6.25957 29.1809H10.6175L16.3499 31.5778C16.9205 31.8163 17.5322 31.9395 18.1505 31.9395H19.7009C20.7176 31.9395 21.7065 31.6074 22.5175 30.9944L30.3154 25.0956C30.9671 24.6018 31.0793 23.6658 30.561 23.0327C30.5113 22.9718 30.4573 22.9162 30.4001 22.8654Z" fill="#E4C3BE"/>
<path d="M22.6772 27.1881C23.2968 27.1881 23.8949 26.7647 24.2329 26.3822C24.5927 25.9749 24.7547 25.5443 24.6934 25.1627L24.691 25.0439L23.5247 25.7226C23.5094 25.7404 23.4935 25.7585 23.4762 25.777C23.2164 26.0543 22.8668 26.2406 22.6438 26.2195C22.6287 26.2181 22.6137 26.2174 22.5986 26.2174H17.2092C16.9422 26.2174 16.7257 26.4339 16.7257 26.7009C16.7257 26.9679 16.9422 27.1844 17.2092 27.1844H22.5787C22.6115 27.1869 22.6443 27.1881 22.6772 27.1881Z" fill="#E4C3BE"/>
<path d="M6.23322 29.2866V27.0502H6.25978V22.6861C6.25978 22.1221 5.80245 21.6647 5.23836 21.6647H1.59644V30.5378H5.23843C5.80251 30.5378 6.25984 30.0805 6.25984 29.5163V29.26L6.23322 29.2866Z" fill="#D4F2F6"/>
<path d="M5.23843 27.8395H1.59644V30.5378H5.23843C5.80251 30.5378 6.25984 30.0805 6.25984 29.5164V26.8181C6.25978 27.3823 5.80251 27.8395 5.23843 27.8395Z" fill="#A7E6EF"/>
<path d="M1.59642 32C1.32939 32 1.11292 31.7836 1.11292 31.5165V20.6927C1.11292 20.4256 1.32939 20.2092 1.59642 20.2092C1.86344 20.2092 2.07992 20.4256 2.07992 20.6927V31.5165C2.07992 31.7836 1.86344 32 1.59642 32Z" fill="#A7E6EF"/>
<path d="M25.5509 1.90809C23.0067 -0.63603 18.8819 -0.63603 16.3377 1.90809L16.1731 2.07267L16.0085 1.90809C13.4643 -0.63603 9.33942 -0.63603 6.7953 1.90809C4.25118 4.45221 4.25118 8.57712 6.7953 11.1212L15.0371 19.3631C15.6645 19.9905 16.6817 19.9905 17.309 19.3631L25.5508 11.1212C28.095 8.57712 28.095 4.45228 25.5509 1.90809Z" fill="#FF3A6B"/>
<path d="M10.7909 11.1213C8.24677 8.57718 8.24677 4.45227 10.7909 1.90815C11.5482 1.15079 12.4456 0.619006 13.3997 0.312595C11.1486 -0.410465 8.58213 0.121322 6.7953 1.90815C4.25118 4.45227 4.25118 8.57718 6.7953 11.1213L15.0371 19.3631C15.6645 19.9905 16.6817 19.9905 17.309 19.3631L18.1708 18.5013L10.7909 11.1213Z" fill="#F3134B"/>
<path d="M16.1758 15.444C19.3735 15.444 21.9658 12.8517 21.9658 9.65404C21.9658 6.45633 19.3735 3.86407 16.1758 3.86407C12.9781 3.86407 10.3859 6.45633 10.3859 9.65404C10.3859 12.8517 12.9781 15.444 16.1758 15.444Z" fill="#F9F7F8"/>
<path d="M10.7908 11.1213C10.6904 11.0209 10.5943 10.9176 10.5018 10.8124C10.9608 13.0723 12.7359 14.8541 14.9923 15.3227L10.7908 11.1213Z" fill="#EFEDEF"/>
<path d="M19.0361 8.73984H17.3501V7.05384C17.3501 6.91698 17.2392 6.80603 17.1023 6.80603H15.244C15.1071 6.80603 14.9962 6.91698 14.9962 7.05384V8.73984H13.3102C13.1733 8.73984 13.0624 8.85079 13.0624 8.98765V10.846C13.0624 10.9828 13.1733 11.0938 13.3102 11.0938H14.9962V12.7798C14.9962 12.9167 15.1071 13.0276 15.244 13.0276H17.1023C17.2392 13.0276 17.3501 12.9167 17.3501 12.7798V11.0938H19.0361C19.173 11.0938 19.2839 10.9828 19.2839 10.846V8.98765C19.2839 8.85079 19.1729 8.73984 19.0361 8.73984Z" fill="#FF3A6B"/>
<path d="M28.5608 16.4084H27.4856V15.3332C27.4856 15.1814 27.3625 15.0582 27.2106 15.0582H25.7951C25.6432 15.0582 25.5201 15.1814 25.5201 15.3332V16.4084H24.4449C24.2931 16.4084 24.1699 16.5315 24.1699 16.6834V18.0989C24.1699 18.2508 24.2931 18.3739 24.4449 18.3739H25.5201V19.4491C25.5201 19.601 25.6432 19.7241 25.7951 19.7241H27.2106C27.3625 19.7241 27.4856 19.601 27.4856 19.4491V18.3739H28.5608C28.7127 18.3739 28.8358 18.2508 28.8358 18.0989V16.6834C28.8358 16.5315 28.7127 16.4084 28.5608 16.4084Z" fill="#FF3A6B"/>
<path d="M3.85534 16.4084H4.93045V15.3332C4.93045 15.1814 5.05358 15.0582 5.20547 15.0582H6.62097C6.77285 15.0582 6.89598 15.1814 6.89598 15.3332V16.4084H7.97116C8.12304 16.4084 8.24618 16.5315 8.24618 16.6834V18.0989C8.24618 18.2508 8.12304 18.3739 7.97116 18.3739H6.89598V19.4491C6.89598 19.601 6.77285 19.7241 6.62097 19.7241H5.20547C5.05358 19.7241 4.93045 19.601 4.93045 19.4491V18.3739H3.85534C3.70345 18.3739 3.58032 18.2508 3.58032 18.0989V16.6834C3.58032 16.5315 3.70345 16.4084 3.85534 16.4084Z" fill="#FF3A6B"/>
</svg>
