<svg width="32" height="32" viewBox="0 0 32 32" fill="none" xmlns="http://www.w3.org/2000/svg">
<path d="M24.1117 3H7.88831C5.1885 3 3 5.14303 3 7.78651V18.2055C3 20.849 5.18861 22.992 7.88831 22.992H10.2166C10.3274 22.992 10.4171 23.0799 10.4171 23.1883V28.3278C10.4171 28.9354 11.1762 29.2301 11.6013 28.7873L17.1084 23.0538C17.1463 23.0143 17.1992 22.992 17.2546 22.992H24.1117C26.8114 22.992 29 20.8489 29 18.2055V7.78651C29 5.14303 26.8114 3 24.1117 3Z" fill="#EC5569"/>
<path d="M12.5001 21.4245C12.5001 21.312 12.4083 21.2208 12.2951 21.2208H9.91587C7.15707 21.2208 5.42055 18.8928 5.42055 16.15V5.33945C5.42055 4.87532 5.48482 4.42615 5.60454 4C4.0487 4.81228 3 6.34322 3 8.09811V18.364C3 20.9687 5.31019 23.0802 8.15988 23.0802L10.1175 23.1846C10.2345 23.1846 10.3292 23.2713 10.3292 23.3781V28.4421C10.3292 29.0408 11.1305 29.3311 11.5792 28.8949L12.5 28L12.5001 21.4245Z" fill="#E63950"/>
<path d="M21.1305 9.77954C19.9713 8.74015 18.0917 8.74015 16.9324 9.77954L16.2775 10.3667C16.1214 10.5066 15.8682 10.5066 15.712 10.3667L15.0677 9.78892C13.9084 8.74954 12.0288 8.74954 10.8695 9.78892C9.71018 10.8283 9.71018 12.5135 10.8695 13.5529L15.7124 17.895C15.8686 18.035 16.1218 18.035 16.2779 17.895L21.1305 13.5435C22.2898 12.5041 22.2898 10.819 21.1305 9.77954Z" fill="#EC5569"/>
<path d="M21.1305 9.77954C19.9713 8.74015 18.0917 8.74015 16.9324 9.77954L16.2775 10.3667C16.1214 10.5066 15.8682 10.5066 15.712 10.3667L15.0677 9.78892C13.9084 8.74954 12.0288 8.74954 10.8695 9.78892C9.71018 10.8283 9.71018 12.5135 10.8695 13.5529L15.7124 17.895C15.8686 18.035 16.1218 18.035 16.2779 17.895L21.1305 13.5435C22.2898 12.5041 22.2898 10.819 21.1305 9.77954Z" fill="#FFF5F5"/>
<path d="M12.1463 13.548C11.1191 12.5074 11.1191 10.8204 12.1463 9.77977C12.4833 9.43845 12.889 9.20982 13.3182 9.09247C12.4389 8.85193 11.4606 9.08055 10.7704 9.77977C9.7432 10.8203 9.7432 12.5074 10.7704 13.548L15.5616 17.9432C15.6999 18.0833 15.9243 18.0833 16.0626 17.9432L16.5 17.5L12.1463 13.548Z" fill="#DCE6EB"/>
</svg>
