<svg width="32" height="32" viewBox="0 0 32 32" fill="none" xmlns="http://www.w3.org/2000/svg">
<path fill-rule="evenodd" clip-rule="evenodd" d="M13.6869 9.21093C4.46823 0.107215 -1.59169 11.4405 3.32189 16.3541L13.316 26.3481C13.5701 26.6023 13.9856 26.6023 14.2416 26.3481L24.2338 16.3541C29.1492 11.4405 23.0893 0.107215 13.8706 9.21093C13.8206 9.261 13.737 9.261 13.687 9.21093H13.6869Z" fill="#E83826"/>
<path fill-rule="evenodd" clip-rule="evenodd" d="M13.6869 9.21093C4.46823 0.107216 -1.59169 11.4405 3.32189 16.3541L12.012 25.0442L21.2177 15.9126C26.3577 10.8136 21.5294 4.78528 17.8437 6.37675C16.6121 6.90727 15.2784 7.81982 13.8706 9.211C13.8187 9.26107 13.737 9.26107 13.687 9.211L13.6869 9.21093Z" fill="#F85647"/>
<path d="M0.458151 16.7491C0.207705 16.7528 0.00187419 16.5488 -1.81663e-05 16.2965C-0.00183774 16.0462 0.200281 15.8403 0.45262 15.8384L9.75635 15.7066L11.1048 12.5626C11.2829 12.1471 11.8264 12.2065 11.9766 12.6516L13.9873 18.5706L15.8143 14.308C15.9145 14.0706 16.1074 14.0298 16.3281 14.0298H23.653C23.9072 14.0298 24.1112 14.2338 24.1112 14.4879C24.1112 14.7402 23.9072 14.9461 23.653 14.9461H16.534L14.3638 20.0136C14.1969 20.4161 13.6386 20.3864 13.505 19.9932L11.4758 14.0167L10.4891 16.3206C10.4129 16.4968 10.2627 16.6155 10.0642 16.6173L0.458151 16.7491Z" fill="#FFE0E0"/>
<path fill-rule="evenodd" clip-rule="evenodd" d="M25.0182 8.03491C21.507 8.03491 18.643 10.8989 18.643 14.4101C18.643 17.9214 21.5069 20.7853 25.0182 20.7853C28.5295 20.7853 31.3934 17.9214 31.3934 14.4101C31.3934 10.8989 28.5295 8.03491 25.0182 8.03491Z" fill="#E8ECF9"/>
<path fill-rule="evenodd" clip-rule="evenodd" d="M25.892 20.7242C28.9989 20.2994 31.3935 17.634 31.3935 14.4102C31.3935 11.1864 28.9989 8.52094 25.892 8.09436C22.7851 8.52101 20.3904 11.1846 20.3904 14.4102C20.3904 17.6358 22.785 20.2994 25.892 20.7242Z" fill="white"/>
<path d="M25.0183 8.64136C23.4249 8.64136 21.9837 9.28687 20.9394 10.3312C19.8951 11.3755 19.2496 12.8167 19.2496 14.41C19.2496 16.0033 19.8951 17.4445 20.9394 18.4888C21.9837 19.5313 23.4249 20.1768 25.0183 20.1768C26.6116 20.1768 28.0529 19.5312 29.0972 18.4888C30.1397 17.4445 30.7851 16.0015 30.7851 14.41C30.7851 12.8185 30.1397 11.3755 29.0972 10.3312C28.0529 9.28687 26.6098 8.64136 25.0183 8.64136ZM20.0806 9.47232C21.3438 8.20917 23.0892 7.42639 25.0183 7.42639C26.9474 7.42639 28.6909 8.20917 29.9541 9.47232C31.2191 10.7355 32 12.481 32 14.41C32 16.339 31.2191 18.0826 29.9541 19.3477C28.6909 20.6108 26.9455 21.3917 25.0183 21.3917C23.0911 21.3917 21.3438 20.6108 20.0806 19.3477C18.8175 18.0826 18.0347 16.3372 18.0347 14.41C18.0347 12.4828 18.8175 10.7355 20.0806 9.47232Z" fill="#CCC4CC"/>
<path fill-rule="evenodd" clip-rule="evenodd" d="M24.0462 18.1106H25.9883C26.1144 18.1106 26.2164 18.0086 26.2164 17.8824V15.8365C26.2164 15.7104 26.3184 15.6083 26.4446 15.6083H28.4904C28.6166 15.6083 28.7186 15.5063 28.7186 15.3802V13.4381C28.7186 13.3138 28.6166 13.2099 28.4904 13.2099H26.4446C26.3184 13.2099 26.2164 13.1079 26.2164 12.9817V10.9377C26.2164 10.8116 26.1144 10.7096 25.9883 10.7096H24.0462C23.9219 10.7096 23.8181 10.8116 23.8181 10.9377V12.9817C23.8181 13.1079 23.7161 13.2099 23.59 13.2099H21.5459C21.4198 13.2099 21.3178 13.3138 21.3178 13.4381V15.3802C21.3178 15.5063 21.4198 15.6083 21.5459 15.6083H23.59C23.7161 15.6083 23.8181 15.7104 23.8181 15.8365V17.8824C23.8181 18.0086 23.922 18.1106 24.0462 18.1106Z" fill="#F85647"/>
</svg>
