<svg width="32" height="32" viewBox="0 0 32 32" fill="none" xmlns="http://www.w3.org/2000/svg">
<path d="M7.85464 25.3162L9.94915 23.5007C10.2198 23.2661 10.2261 22.8459 9.959 22.6072C9.92254 22.5746 9.88638 22.5418 9.85043 22.5086C8.07335 20.8678 6.96151 18.5247 6.96151 15.9235L4.80104 14.5092L3 15.9235C3 19.6159 4.5579 22.9462 7.05561 25.3013C7.27792 25.5109 7.62374 25.5163 7.85464 25.3162Z" fill="#FFD9C7"/>
<path d="M3 15.9236H6.96151C6.96151 13.4795 7.94356 11.2637 9.53625 9.64387L9.18124 7.24131L6.73503 6.85913C4.42552 9.19176 3 12.3919 3 15.9236Z" fill="#FFD884"/>
<path d="M6.73505 6.85912L9.53627 9.6439C11.1773 7.97478 13.4667 6.93828 15.9999 6.93828L17.5856 4.99189L15.9999 3C12.3727 3 9.0931 4.47738 6.73505 6.85912Z" fill="#FABD37"/>
<path d="M15.9998 3V6.93828C18.2716 6.93828 20.3464 7.77043 21.9343 9.14625L22.4436 9.66559L24.0134 9.86897L25.2656 6.86008C22.9075 4.47773 19.6275 3 15.9998 3Z" fill="#FC9F60"/>
<path d="M22.4436 9.66561L22.9669 10.1992C24.2605 11.7536 25.0383 13.7486 25.0383 15.9237L26.9136 17.5871L28.9998 15.9237C28.9998 12.3925 27.5746 9.19274 25.2657 6.86011L22.4436 9.66561Z" fill="#FFB3CC"/>
<path d="M23.4548 20.963L28.0693 20.7077C28.6695 19.221 28.9998 17.6236 28.9998 15.9236H25.0383C25.0383 17.8397 24.483 19.5046 23.4548 20.963Z" fill="#FF8095"/>
<path d="M17.7537 22.1942C17.7537 20.5861 19.0644 19.2825 20.6693 19.2825C21.762 19.2825 22.7137 19.8868 23.2099 20.7801C23.284 20.9135 23.4758 20.9135 23.5499 20.7801C24.0462 19.8868 24.9979 19.2825 26.0906 19.2825C27.8679 19.2795 29.032 20.6651 28.9991 22.4142C28.9304 26.0619 24.6437 28.4234 23.604 28.9442C23.4591 29.0167 23.2893 29.0185 23.1427 28.9494C22.0776 28.4475 17.7537 26.1333 17.7537 22.1942Z" fill="#FF8095"/>
<path d="M26.0906 19.2825C24.9979 19.2825 24.0462 19.8869 23.5499 20.7801C23.5109 20.8503 23.4393 20.8832 23.3694 20.8795V28.9997C23.4498 28.9995 23.5301 28.9811 23.6039 28.9442C24.6437 28.4235 28.9304 26.0619 28.999 22.4142C29.032 20.6651 27.8679 19.2795 26.0906 19.2825Z" fill="#FF5858"/>
<path d="M25.2877 7.0104C25.3575 6.90792 25.2338 6.78483 25.1317 6.85521C23.4138 8.03882 17.6789 11.9966 15.6002 13.5144C14.3451 14.42 14.0303 15.8933 15.1387 17.0017C16.1518 18.0147 17.6481 17.8328 18.626 16.5402C20.1789 14.4875 24.1125 8.73442 25.2877 7.0104Z" fill="#697C86"/>
<path d="M25.1317 6.85551C23.5138 7.97016 18.3341 11.5446 15.9998 13.2252V17.5475C16.8876 17.8473 17.8997 17.5006 18.6259 16.5406C20.1788 14.4879 24.1124 8.73477 25.2876 7.01075C25.3575 6.90823 25.2338 6.78513 25.1317 6.85551Z" fill="#475A61"/>
</svg>
