<svg width="32" height="32" viewBox="0 0 32 32" fill="none" xmlns="http://www.w3.org/2000/svg">
<path d="M4.52917 18H6.05858C6.90325 18 7.58799 18.6716 7.58799 19.5V22.4999C7.58799 23.3283 6.90325 23.9999 6.05858 23.9999H4.52917C3.6845 23.9999 2.99976 23.3283 2.99976 22.4999V19.5C2.99976 18.6716 3.6845 18 4.52917 18Z" fill="#FBBE47"/>
<path d="M11.6665 15H13.1959C14.0406 15 14.7253 15.6716 14.7253 16.5V22.4999C14.7253 23.3283 14.0406 23.9999 13.1959 23.9999H11.6665C10.8218 23.9999 10.1371 23.3283 10.1371 22.4999V16.5C10.1371 15.6716 10.8218 15 11.6665 15Z" fill="#FBBE47"/>
<path d="M18.8038 11.4998H20.3332C21.1779 11.4998 21.8626 12.1713 21.8626 12.9997V22.4996C21.8626 23.328 21.1779 23.9996 20.3332 23.9996H18.8038C17.9592 23.9996 17.2744 23.328 17.2744 22.4996V12.9997C17.2744 12.1713 17.9592 11.4998 18.8038 11.4998Z" fill="#CDD0D6"/>
<path d="M25.941 8H27.4704C28.3151 8 28.9999 8.67156 28.9999 9.49998V22.4998C28.9999 23.3282 28.3151 23.9998 27.4704 23.9998H25.941C25.0964 23.9998 24.4116 23.3282 24.4116 22.4998V9.49998C24.4116 8.67156 25.0964 8 25.941 8V8Z" fill="#CDD0D6"/>
</svg>
