<svg width="32" height="32" viewBox="0 0 32 32" fill="none" xmlns="http://www.w3.org/2000/svg">
<path d="M27.9491 26.9451C26.2436 26.9451 24.8561 25.5576 24.8561 23.8522V22.7751C24.8561 22.2241 24.4078 21.7758 23.8568 21.7758H20.3252C20.0584 21.7758 19.8423 21.5596 19.8423 21.2929C19.8423 21.0262 20.0585 20.81 20.3252 20.81H23.8568C24.9403 20.81 25.8219 21.6916 25.8219 22.7751V23.8523C25.8219 25.0252 26.7762 25.9794 27.9491 25.9794C29.122 25.9794 30.0762 25.0251 30.0762 23.8523V16.11C30.0762 15.8432 30.2924 15.6271 30.5591 15.6271C30.8258 15.6271 31.042 15.8433 31.042 16.11V23.8522C31.042 25.5576 29.6545 26.9451 27.9491 26.9451Z" fill="#E5EEF9"/>
<path d="M16.9811 20.2429V22.7027H20.7023C20.9718 22.7027 21.1903 22.4842 21.1903 22.2146V20.7309C21.1903 20.4614 20.9718 20.2429 20.7023 20.2429H16.9811Z" fill="#0ED2B3"/>
<path d="M0 21.9144V6.45081C0 5.64956 0.649562 5 1.45081 5H17.4468C18.248 5 18.8976 5.64956 18.8976 6.45081V21.9144C18.8976 24.8801 16.4934 27.2842 13.5277 27.2842H5.36987C2.40419 27.2842 0 24.8801 0 21.9144Z" fill="#E5EEF9"/>
<path d="M17.4468 5H15.9371C16.7384 5 17.3879 5.64956 17.3879 6.45081V21.9144C17.3879 24.8801 14.9838 27.2842 12.0181 27.2842H13.5277C16.4934 27.2842 18.8976 24.8801 18.8976 21.9144V6.45081C18.8976 5.64956 18.248 5 17.4468 5Z" fill="#D1E0F2"/>
<path d="M2.29724 8.14662V20.2406C2.29724 20.7097 2.67749 21.09 3.14662 21.09H11.0896C11.5586 21.09 11.9389 20.7097 11.9389 20.2406V8.14662C11.9389 7.67755 11.5587 7.29724 11.0896 7.29724H3.14662C2.67755 7.29724 2.29724 7.67755 2.29724 8.14662Z" fill="#017297"/>
<path d="M11.0896 7.29724H9.57996C10.049 7.29724 10.4293 7.67749 10.4293 8.14662V20.2406C10.4293 20.7097 10.0491 21.09 9.57996 21.09H11.0896C11.5586 21.09 11.939 20.7097 11.939 20.2406V8.14662C11.939 7.67749 11.5587 7.29724 11.0896 7.29724Z" fill="#025F80"/>
<path d="M7.26756 18.8604C7.18043 18.9305 7.05575 18.9305 6.96868 18.8604C5.61393 17.7687 4.96131 17.3375 4.72293 16.5992C4.49587 15.896 4.88181 15.1419 5.585 14.9149C6.15225 14.7317 6.75243 14.9473 7.08256 15.4065C7.10025 15.4312 7.136 15.4312 7.15368 15.4065C7.48387 14.9474 8.08412 14.7317 8.65112 14.9148C9.35425 15.1418 9.74031 15.8959 9.51331 16.599C9.27081 17.3502 8.58043 17.8036 7.26756 18.8604Z" fill="#FE76A8"/>
<path d="M5.96 13.5493H5.26681C5.00012 13.5493 4.78394 13.3331 4.78394 13.0664C4.78394 12.7997 5.00012 12.5836 5.26681 12.5836H5.96C6.22669 12.5836 6.44287 12.7997 6.44287 13.0664C6.44294 13.3331 6.22669 13.5493 5.96 13.5493Z" fill="#FEC165"/>
<path d="M8.95356 11.7532H5.26681C5.00012 11.7532 4.78394 11.537 4.78394 11.2704C4.78394 11.0037 5.00012 10.7875 5.26681 10.7875H8.95356C9.22025 10.7875 9.43644 11.0037 9.43644 11.2704C9.43644 11.537 9.22025 11.7532 8.95356 11.7532Z" fill="#FEC165"/>
<path d="M8.95356 9.95708H5.26681C5.00012 9.95708 4.78394 9.7409 4.78394 9.47421C4.78394 9.20752 5.00012 8.99133 5.26681 8.99133H8.95356C9.22025 8.99133 9.43644 9.20752 9.43644 9.47421C9.43644 9.7409 9.22025 9.95708 8.95356 9.95708Z" fill="#FEC165"/>
<path d="M8.11113 22.9202H6.10913C5.74663 22.9202 5.45276 23.214 5.45276 23.5765V24.4029C5.45276 24.7654 5.74663 25.0592 6.10913 25.0592H8.11113C8.47363 25.0592 8.76751 24.7654 8.76751 24.4029V23.5765C8.76751 23.214 8.4737 22.9202 8.11113 22.9202Z" fill="#0ED2B3"/>
<path d="M14.8959 23.4031H12.452C12.1853 23.4031 11.9691 23.1869 11.9691 22.9202C11.9691 22.6535 12.1853 22.4373 12.452 22.4373H14.8959C15.1626 22.4373 15.3788 22.6535 15.3788 22.9202C15.3788 23.1869 15.1626 23.4031 14.8959 23.4031Z" fill="#62DBFB"/>
<path d="M14.1083 25.2446H12.452C12.1853 25.2446 11.9691 25.0284 11.9691 24.7617C11.9691 24.495 12.1853 24.2788 12.452 24.2788H14.1083C14.375 24.2788 14.5912 24.495 14.5912 24.7617C14.5912 25.0284 14.375 25.2446 14.1083 25.2446Z" fill="#62DBFB"/>
<path d="M14.2847 8.19804V9.46448C14.2847 9.67267 14.4534 9.84142 14.6616 9.84142H16.175C16.3832 9.84142 16.5519 9.67267 16.5519 9.46448V8.19804C16.5519 7.98986 16.3832 7.82111 16.175 7.82111H14.6616C14.4534 7.82111 14.2847 7.98986 14.2847 8.19804Z" fill="#FE76A8"/>
<path d="M14.2847 12.4332V13.6996C14.2847 13.9078 14.4534 14.0766 14.6616 14.0766H16.175C16.3832 14.0766 16.5519 13.9078 16.5519 13.6996V12.4332C16.5519 12.225 16.3832 12.0563 16.175 12.0563H14.6616C14.4534 12.0563 14.2847 12.225 14.2847 12.4332Z" fill="#FE76A8"/>
<path d="M14.2847 16.6683V17.9348C14.2847 18.1429 14.4534 18.3117 14.6616 18.3117H16.175C16.3832 18.3117 16.5519 18.1429 16.5519 17.9348V16.6683C16.5519 16.4601 16.3832 16.2914 16.175 16.2914H14.6616C14.4534 16.2914 14.2847 16.4601 14.2847 16.6683Z" fill="#0ED2B3"/>
<path d="M31.1438 5.61835H23.592C23.1192 5.61835 22.7358 6.00166 22.7358 6.47453V16.4453C22.7358 16.9182 23.1192 17.3015 23.592 17.3015H31.1438C31.6167 17.3015 32 16.9182 32 16.4453V6.47453C32 6.00172 31.6167 5.61835 31.1438 5.61835Z" fill="#017297"/>
<path d="M31.1438 5.61835H29.5685C30.0414 5.61835 30.4247 6.00166 30.4247 6.47453V16.4453C30.4247 16.9182 30.0414 17.3015 29.5685 17.3015H31.1438C31.6167 17.3015 32 16.9182 32 16.4453V6.47453C32 6.00172 31.6167 5.61835 31.1438 5.61835Z" fill="#025F80"/>
<path d="M27.5945 14.7561H22.4895C22.1868 14.7561 21.9414 14.5108 21.9414 14.208V8.71194C21.9414 8.40926 22.1868 8.16382 22.4895 8.16382H27.5945C28.4704 8.16382 29.1804 8.87382 29.1804 9.74969V13.1703C29.1804 14.0461 28.4703 14.7561 27.5945 14.7561Z" fill="#62DBFB"/>
<path d="M27.5945 8.16382H26.0192C26.895 8.16382 27.605 8.87382 27.605 9.74969V13.1702C27.605 14.0461 26.895 14.7561 26.0192 14.7561H27.5945C28.4704 14.7561 29.1804 14.0461 29.1804 13.1702V9.74963C29.1804 8.87382 28.4703 8.16382 27.5945 8.16382Z" fill="#01D0FB"/>
</svg>
