<svg width="32" height="32" viewBox="0 0 32 32" fill="none" xmlns="http://www.w3.org/2000/svg">
<path d="M16 3C8.83177 3 3 8.83177 3 16C3 23.1682 8.83177 29 16 29C23.1682 29 29 23.1682 29 16C29 8.83177 23.1682 3 16 3ZM16 25.8825C11.0494 25.8825 6.94921 22.2423 6.22964 17.4926H5.91164C5.70888 17.4926 5.54389 17.3276 5.54389 17.1249V14.8751C5.54389 14.6723 5.70888 14.5074 5.91164 14.5074H6.23004C6.47136 12.9159 7.092 11.4489 7.99723 10.2016L12.2522 14.4566L12.2238 14.5074L15.2029 17.4792L15.3389 17.5433L21.7983 24.0027C20.1696 25.1849 18.1664 25.8825 16 25.8825ZM24.0027 21.7983L19.7478 17.5433L19.7191 17.4428L16.7836 14.5073L16.661 14.4566L10.2016 7.99718C11.8304 6.81514 13.8336 6.11751 16 6.11751C21.458 6.11751 25.8825 10.5421 25.8825 16C25.8825 18.1664 25.1849 20.1696 24.0027 21.7983Z" fill="#FF3636"/>
<path d="M24.4587 14.5754L24.408 14.4567H16.661L19.7477 17.5435H24.408L24.4587 17.3662V14.5754Z" fill="#EFEDEF"/>
<path d="M23.4786 5.37256C25.9908 7.74435 27.5614 11.1035 27.5614 14.8229C27.5614 21.9912 21.7295 27.823 14.5614 27.823C11.7795 27.823 9.19928 26.9442 7.08276 25.4504C9.4122 27.6496 12.5512 29 16 29C23.1682 29 29 23.1682 29 16C29 11.6136 26.816 7.72805 23.4786 5.37256Z" fill="#F40000"/>
<path d="M12.2522 14.4567H5.91164C5.68048 14.4567 5.49315 14.644 5.49315 14.8752V17.1249C5.49315 17.356 5.68053 17.5434 5.91164 17.5434H15.3389L12.2522 14.4567Z" fill="#F6A96C"/>
<path d="M14.2664 16.4708H5.49315V17.1249C5.49315 17.356 5.68053 17.5434 5.91164 17.5434H15.3389L14.2664 16.4708Z" fill="#EA9B58"/>
<path d="M18.6753 16.4708L19.7478 17.5434H24.408V16.4708H18.6753Z" fill="#E5E1E5"/>
<path d="M24.4079 17.5435H26.0883C26.3194 17.5435 26.5068 17.3561 26.5068 17.125V14.8753C26.5068 14.6441 26.3194 14.4568 26.0883 14.4568H24.4079V17.5435Z" fill="#FFD15B"/>
<path d="M26.0884 14.4567H25.4165V16.0524C25.4165 16.2835 25.2292 16.4709 24.998 16.4709H24.408V17.5434H26.0884C26.3195 17.5434 26.5069 17.356 26.5069 17.1249V14.8752C26.5069 14.644 26.3195 14.4567 26.0884 14.4567Z" fill="#FFC344"/>
<path d="M23.4736 8.8589H23.1923C22.918 8.8589 22.6957 8.63653 22.6957 8.36226C22.6957 6.91363 21.5213 5.73926 20.0727 5.73926H16.2054C16.0609 5.73926 15.9438 5.85636 15.9438 6.00083V7.08963C15.9438 7.78016 16.5036 8.33997 17.1941 8.33997H19.7666C20.1299 8.33997 20.4244 8.63445 20.4244 8.99774V9.70913C20.4244 10.3997 20.9842 10.9595 21.6747 10.9595H23.6704C24.0336 10.9595 24.3281 11.2539 24.3281 11.6172V12.8089C24.3281 12.9533 24.4452 13.0704 24.5897 13.0704H25.835C25.9794 13.0704 26.0965 12.9533 26.0965 12.8089V11.4819C26.0966 10.0333 24.9222 8.8589 23.4736 8.8589Z" fill="#E5E1E5"/>
<path d="M24.6958 9.16101C24.8885 9.52608 24.998 9.94177 24.998 10.3832V11.7102C24.998 11.8547 24.8809 11.9718 24.7364 11.9718H24.3282V12.8088C24.3282 12.9533 24.4453 13.0704 24.5898 13.0704H25.835C25.9795 13.0704 26.0966 12.9533 26.0966 12.8088V11.4818C26.0966 10.4746 25.5286 9.60052 24.6958 9.16101Z" fill="#D7D0D6"/>
</svg>
