<svg width="32" height="32" viewBox="0 0 32 32" fill="none" xmlns="http://www.w3.org/2000/svg">
<path d="M16 3C8.82042 3 3 8.80872 3 15.9739C3 23.139 8.82042 28.9478 16 28.9478C23.1796 28.9478 29 23.139 29 15.9739C29 8.80872 23.1796 3 16 3ZM16 26.2819C14.1743 26.2819 12.4597 25.809 10.9712 24.9798C10.7927 24.88 10.7487 24.6423 10.878 24.4834L11.0059 24.3258L11.8725 21.6398L9.02084 22.3856L8.72932 22.745C8.60052 22.9038 8.35812 22.9106 8.22304 22.7565C6.61728 20.9246 5.65079 18.5205 5.67173 15.8902C5.71675 10.1902 10.3393 5.63809 16.0513 5.66578C17.8555 5.67467 19.5503 6.14545 21.0236 6.96526C21.2047 7.06611 21.2524 7.30385 21.122 7.46478L20.8727 7.77222L20.571 9.48673L21.416 10.33L22.9476 9.60105L23.2707 9.20264C23.401 9.04223 23.6445 9.03962 23.7806 9.19533C24.8717 10.4415 25.6665 11.9521 26.0571 13.6184C26.2518 14.4105 26.3675 15.1216 26.3675 15.9738C26.3675 17.0946 26.1644 18.1208 25.8346 19.1313C24.4979 23.2796 20.6005 26.2819 16 26.2819Z" fill="#FF3636"/>
<path d="M17.1129 4.57983H14.6106L14.3055 5.52066V8.7576L14.8576 9.64947H17.3385L17.6458 8.7576V5.52066L17.1129 4.57983Z" fill="#E68A3A"/>
<path d="M16.7476 5.52281L17.0528 4.58203H14.6695L14.3644 5.52281V8.75974L14.9165 9.65161H17.2998L16.7476 8.75974V5.52281Z" fill="#BA5F10"/>
<path d="M20.0458 11.531L17.6589 8.75757L17.6552 8.7607L17.6526 8.75757H14.3123L11.9254 11.531C11.4772 12.052 11.2311 12.7156 11.2311 13.4021V14.8531L12.2077 16.4204V20.1112L11.2311 20.8416V27.724C11.2311 28.4289 11.8034 29 12.5092 29H19.4557C20.1615 29 20.7338 28.4289 20.7338 27.724V20.8416L19.6206 19.8931V16.2228L20.7338 14.8531H20.7406V13.4021C20.7406 12.7156 20.494 12.052 20.0458 11.531Z" fill="#3EB450"/>
<path d="M14.2568 15.7709L13.685 14.8531V13.4021C13.685 12.7156 13.931 12.052 14.3792 11.531L16.7661 8.75757H14.3123L11.9254 11.531C11.4772 12.052 11.2311 12.7156 11.2311 13.4021V14.8531L11.803 15.7709H14.2568Z" fill="#288B37"/>
<path d="M14.8466 27.9686C14.1409 27.9686 13.5686 27.3975 13.5686 26.6926V20.058H12.2077V20.1113L11.2311 20.8416V27.7241C11.2311 28.4289 11.8034 29 12.5092 29H19.4557C20.0777 29 20.5957 28.5564 20.71 27.9686H14.8466Z" fill="#288B37"/>
<path d="M15.1031 14.853H11.2311V20.8415H14.3312H20.7338V14.853H15.1031Z" fill="#E68A3A"/>
<path d="M11.2311 14.853H13.685V20.8415H11.2311V14.853Z" fill="#BA5F10"/>
<path d="M17.6458 3.70792V5.5205H14.3055V3.70792C14.3055 3.32074 14.6201 3.00671 15.0081 3.00671H16.9432C17.3311 3.00671 17.6458 3.32074 17.6458 3.70792Z" fill="#FFDD6E"/>
<path d="M17.19 3.05212C17.1131 3.02328 17.0302 3.00671 16.9432 3.00671H15.0082C14.6202 3.00671 14.3055 3.32074 14.3055 3.70792V5.5205H16.7343V3.70792C16.7342 3.40758 16.924 3.15197 17.19 3.05212Z" fill="#E2B31A"/>
<path d="M20.8726 7.77222L9.02081 22.3856L11.0058 24.3258L22.9476 9.60105L20.8726 7.77222Z" fill="#FF3636"/>
</svg>
