<svg width="32" height="32" viewBox="0 0 32 32" fill="none" xmlns="http://www.w3.org/2000/svg">
<path d="M21.8329 8.1064V26.9075C21.8329 27.3516 21.6943 27.7634 21.4584 28.1018C21.4584 28.1018 4.35968 24.6375 6.8607 6.01385H19.7404C20.896 6.01385 21.8329 6.95026 21.8329 8.1064Z" fill="#99B2E9"/>
<path d="M21.5421 25.3846L21.4584 28.1018C21.0807 28.6448 20.4519 29 19.7404 29H5.09254C3.93696 29 3 28.0631 3 26.9075V8.1064C3 6.95026 3.93696 6.01385 5.09254 6.01385H6.86075C6.89736 15.4931 13.1311 23.4794 21.5421 25.3846Z" fill="#85A4E4"/>
<path d="M20.002 8.36794V24.9603C11.2426 23.889 6.1879 17.0272 6.94607 7.84479H19.4789C19.7677 7.84479 20.002 8.07864 20.002 8.36794Z" fill="#FFF8E6"/>
<path d="M20.002 24.9603V26.6459C20.002 26.9347 19.7676 27.169 19.4788 27.169H5.35405C5.06526 27.169 4.8309 26.9347 4.8309 26.6459V8.36794C4.8309 8.07864 5.06526 7.84479 5.35405 7.84479H6.94594C7.66683 15.932 12.9097 22.6543 20.002 24.9603Z" fill="#FFF1CF"/>
<path d="M12.4166 5.48505C12.6332 5.48505 12.8089 5.3094 12.8089 5.09271C12.8089 4.87603 12.6332 4.70038 12.4166 4.70038C12.1999 4.70038 12.0242 4.87603 12.0242 5.09271C12.0242 5.3094 12.1999 5.48505 12.4166 5.48505Z" fill="#7D8298"/>
<path d="M14.9362 5.09254C14.7091 5.09254 14.5152 4.93004 14.4736 4.70671C14.2925 3.73531 13.4404 3 12.4165 3C11.3927 3 10.5406 3.73531 10.3595 4.70671C10.3178 4.93004 10.124 5.09254 9.89681 5.09254H9.01612C8.43828 5.09254 7.96982 5.561 7.96982 6.13884V7.61475C7.96982 8.19259 8.43828 8.66104 9.01612 8.66104H15.8169C16.3948 8.66104 16.8632 8.19259 16.8632 7.61475V6.13884C16.8632 5.561 16.3948 5.09254 15.8169 5.09254H14.9362Z" fill="#FF6E80"/>
<path d="M15.1429 7.48401H9.64994C9.43325 7.48401 9.2576 7.30836 9.2576 7.09168C9.2576 6.87494 9.43325 6.69934 9.64994 6.69934H15.1429C15.3596 6.69934 15.5352 6.87499 15.5352 7.09168C15.5353 7.30836 15.3596 7.48401 15.1429 7.48401Z" fill="#FCE3A0"/>
<path d="M12.4166 5.48505C12.6332 5.48505 12.8089 5.3094 12.8089 5.09271C12.8089 4.87603 12.6332 4.70038 12.4166 4.70038C12.1999 4.70038 12.0242 4.87603 12.0242 5.09271C12.0242 5.3094 12.1999 5.48505 12.4166 5.48505Z" fill="#FCE3A0"/>
<path d="M19.2923 12.3903H11.1123C10.8957 12.3903 10.72 12.2147 10.72 11.998C10.72 11.7813 10.8957 11.6057 11.1123 11.6057H19.2923C19.509 11.6057 19.6846 11.7813 19.6846 11.998C19.6846 12.2147 19.509 12.3903 19.2923 12.3903Z" fill="#919191"/>
<path d="M17.3863 14.2212H11.1123C10.8957 14.2212 10.72 14.0455 10.72 13.8289C10.72 13.6122 10.8957 13.4365 11.1123 13.4365H17.3863C17.6029 13.4365 17.7786 13.6122 17.7786 13.8289C17.7786 14.0455 17.6029 14.2212 17.3863 14.2212Z" fill="#919191"/>
<path d="M9.29342 12.4436L8.24768 13.4893C8.0246 13.3147 7.91273 13.0537 7.95472 12.6727L8.73889 11.8886C8.89214 11.7353 9.14011 11.7353 9.29342 11.8886C9.44673 12.0418 9.44668 12.2903 9.29342 12.4436Z" fill="#919191"/>
<path d="M8.24756 13.4894L7.7987 13.9383C7.72233 14.0147 7.62188 14.0534 7.52144 14.0534C7.42099 14.0534 7.32055 14.0147 7.24417 13.9383L6.64622 13.3403C6.49297 13.1871 6.49297 12.9386 6.64622 12.7853C6.79948 12.632 7.04745 12.632 7.20076 12.7853L7.52144 13.106L7.9546 12.6728C8.04672 12.9479 8.14452 13.22 8.24756 13.4894Z" fill="#858586"/>
<path d="M9.29359 15.8124C9.14039 15.6591 8.89196 15.6591 8.73871 15.8124L7.52148 17.0296L7.20105 16.7092C7.04784 16.5559 6.79942 16.5559 6.64616 16.7092C6.49291 16.8624 6.49291 17.1108 6.64616 17.264L7.24406 17.8619C7.32069 17.9386 7.42108 17.9769 7.52148 17.9769C7.62187 17.9769 7.72232 17.9385 7.7989 17.8619L9.29359 16.3672C9.44685 16.214 9.44685 15.9656 9.29359 15.8124Z" fill="#858586"/>
<path d="M16.1535 16.314H11.1123C10.8957 16.314 10.72 16.1383 10.72 15.9216C10.72 15.7049 10.8957 15.5293 11.1123 15.5293H16.1535C16.3702 15.5293 16.5458 15.7049 16.5458 15.9216C16.5458 16.1383 16.3702 16.314 16.1535 16.314Z" fill="#919191"/>
<path d="M16.1535 18.1448H11.1123C10.8957 18.1448 10.72 17.9692 10.72 17.7525C10.72 17.5358 10.8957 17.3602 11.1123 17.3602H16.1535C16.3702 17.3602 16.5458 17.5358 16.5458 17.7525C16.5458 17.9692 16.3702 18.1448 16.1535 18.1448Z" fill="#919191"/>
<path d="M9.29359 19.7357C9.14039 19.5825 8.89196 19.5825 8.73871 19.7357L7.52148 20.9529L7.20105 20.6325C7.04784 20.4793 6.79942 20.4793 6.64616 20.6325C6.49291 20.7857 6.49291 21.0341 6.64616 21.1874L7.24406 21.7853C7.32069 21.8619 7.42108 21.9002 7.52148 21.9002C7.62187 21.9002 7.72232 21.8619 7.7989 21.7853L9.29359 20.2906C9.44685 20.1374 9.44685 19.8889 9.29359 19.7357Z" fill="#858586"/>
<path d="M16.0231 19.845C16.0231 20.0615 15.8473 20.2373 15.6307 20.2373H12.5201C11.9535 20.0759 11.7061 19.8169 11.804 19.4526H15.6307C15.8473 19.4526 16.0231 19.6284 16.0231 19.845Z" fill="#919191"/>
<path d="M17.7787 21.676C17.7787 21.8926 17.603 22.0684 17.3864 22.0684H14.5604C13.8556 21.8839 13.573 21.6165 13.6125 21.2836H17.3864C17.603 21.2836 17.7787 21.4594 17.7787 21.676Z" fill="#919191"/>
<path d="M12.52 20.2374H11.1123C10.8957 20.2374 10.7199 20.0616 10.7199 19.845C10.7199 19.6285 10.8957 19.4527 11.1123 19.4527H11.8039C12.0356 19.7215 12.2742 19.9831 12.52 20.2374Z" fill="#858586"/>
<path d="M14.5603 22.0683H11.1123C10.8957 22.0683 10.7199 21.8925 10.7199 21.676C10.7199 21.4594 10.8957 21.2836 11.1123 21.2836H13.6123C13.92 21.5561 14.2359 21.8177 14.5603 22.0683Z" fill="#858586"/>
<path d="M26.7605 18.655C27.1303 19.3486 27.145 20.2113 26.7228 20.9421C26.4 21.5014 25.8821 21.878 25.3051 22.036C25.1978 23.066 25.0367 24.1239 24.8191 25.3103C24.2316 26.2582 18.0759 26.2577 17.4868 25.3114C17.3691 24.6674 17.2676 24.0616 17.1823 23.4773C17.1823 23.4773 17.1823 16.8371 19.5652 10.3732C20.758 9.57641 22.3703 9.76267 23.3669 10.9324C23.4788 11.0637 23.6436 11.1406 23.8168 11.1349C24.5157 11.1108 25.2183 11.397 25.7027 11.9745C26.1777 12.5406 26.3409 13.2645 26.2102 13.9379C26.1678 14.1549 26.2536 14.3788 26.434 14.5065C27.0367 14.9329 27.4306 15.6354 27.4306 16.4301C27.4306 17.0291 27.2072 17.5753 26.839 17.9906C26.6757 18.1752 26.6443 18.4378 26.7605 18.655Z" fill="#8CE09F"/>
<path d="M25.4443 20.6655L17.1824 23.4773C17.1102 22.9845 17.05 22.5074 17.0008 22.0361C16.2899 21.8409 15.681 21.3157 15.4094 20.5702C15.1699 19.9116 15.2426 19.2153 15.5517 18.6435C15.6652 18.4348 15.637 18.18 15.4779 18.0032C15.1034 17.5862 14.8753 17.0349 14.8753 16.4301C14.8753 15.6355 15.2692 14.9329 15.8719 14.5065C16.0523 14.3788 16.1382 14.155 16.0958 13.9379C15.965 13.2646 16.1282 12.5406 16.6032 11.9745C17.0876 11.397 17.7902 11.1108 18.4891 11.1349C18.6623 11.1406 18.8271 11.0637 18.939 10.9324C19.1279 10.7106 19.3393 10.5238 19.5652 10.3732C18.8428 15.1547 20.8412 18.6372 25.4443 20.6655Z" fill="#73DA8C"/>
<path d="M24.0873 15.4482C23.0091 16.0367 22.1543 16.8857 21.5453 17.9718V17.977C20.6568 17.5303 20.3374 16.7818 20.194 15.942C20.3944 16.1387 20.5838 16.3479 20.7606 16.5693V15.4471C20.431 14.8596 20.0297 14.3407 19.5621 13.8976C19.2597 13.3054 19.2862 12.9953 19.436 12.7703C19.9309 13.1344 20.374 13.5607 20.7606 14.0446V12.3062C20.7606 12.0896 20.9358 11.9139 21.1529 11.9139C21.3695 11.9139 21.5453 12.0896 21.5453 12.3062V14.0446C21.9355 13.5565 22.3823 13.127 22.8824 12.7603C23.0571 12.6326 23.303 12.6703 23.4312 12.8451C23.5593 13.0198 23.5212 13.2657 23.3464 13.3933C22.614 13.93 22.0087 14.6206 21.5453 15.4471V16.5693C22.1375 15.829 22.8625 15.2227 23.7111 14.7592C23.9015 14.6556 24.14 14.7257 24.2436 14.9156C24.3473 15.106 24.2777 15.344 24.0873 15.4482Z" fill="#FFF8E6"/>
<path d="M18.8747 12.8449C19.0028 12.6702 19.2482 12.6325 19.4229 12.7602C19.4271 12.7633 19.4318 12.7664 19.436 12.7695C19.4559 13.1561 19.4983 13.5323 19.5621 13.8974C19.3717 13.7165 19.1708 13.5485 18.9589 13.3931C18.7842 13.2655 18.7465 13.0196 18.8747 12.8449Z" fill="#FFF1CF"/>
<path d="M21.5453 17.977V20.002C21.5453 20.2186 21.3695 20.3944 21.1529 20.3944C20.9359 20.3944 20.7606 20.2186 20.7606 20.002V17.9718C20.1517 16.8857 19.2969 16.0367 18.2181 15.4481C18.0282 15.344 17.9581 15.106 18.0617 14.9156C18.1658 14.7257 18.4039 14.6556 18.5943 14.7592C19.1891 15.084 19.7232 15.479 20.1935 15.9415C20.5325 16.6775 20.9834 17.3565 21.5453 17.977Z" fill="#FFF1CF"/>
<path d="M28.4768 22.3373C28.4768 25.0136 26.7201 26.7065 24.5532 26.7065C23.4348 26.7065 22.4256 26.2556 21.711 25.4504C21.711 25.4504 23.0262 20.2154 23.1125 17.4166C23.5587 17.1592 24.0448 17.0132 24.5532 17.0132C26.7201 17.0133 28.4768 19.6604 28.4768 22.3373Z" fill="#FFF8E6"/>
<path d="M26.7662 22.783C26.7662 22.9472 26.7484 23.1073 26.7144 23.2616C25.0449 22.876 24.1258 21.9868 23.8664 20.6789C24.0825 20.6083 24.3137 20.5701 24.5533 20.5701C25.7754 20.5701 26.7662 21.5609 26.7662 22.783Z" fill="#FCE3A0"/>
<path d="M27.3076 23.5457L21.7111 25.4504C21.0415 24.6966 20.6298 23.632 20.6298 22.3372C20.6298 20.2886 21.6582 18.2578 23.1126 17.4166C23.0263 20.2154 24.4439 22.2838 27.3076 23.5457Z" fill="#FFF1CF"/>
<path d="M26.7144 23.2618C26.6709 23.4579 26.6014 23.6447 26.5098 23.8173L23.6326 24.7967C22.8703 24.4472 22.3404 23.6771 22.3404 22.7831C22.3404 21.8006 22.9807 20.9678 23.8664 20.679C24.4649 21.7253 25.4165 22.5896 26.7144 23.2618Z" fill="#FFCE71"/>
<path d="M23.2455 22.6149C23.2455 25.2149 21.1377 27.3231 18.5372 27.3231C16.8009 27.3231 15.2843 26.3831 14.4682 24.9847C14.8035 25.1228 16.9045 20.5506 17.2053 18.0981C17.6275 17.9731 18.0748 17.9067 18.5372 17.9067C21.1377 17.9067 23.2455 20.0144 23.2455 22.6149Z" fill="#FF6E80"/>
<path d="M20.3776 23.3994L15.0704 25.2053C15.0233 25.2053 14.8036 25.1232 14.4683 24.985C14.0618 24.2887 13.829 23.4794 13.829 22.6152C13.829 20.4771 15.2535 18.6723 17.2053 18.0984C16.9045 20.5509 17.9811 22.3437 20.3776 23.3994Z" fill="#FD5C6F"/>
<path d="M21.676 22.615C21.676 24.3481 20.2709 25.7538 18.5372 25.7538C17.6499 25.7538 16.849 25.3855 16.2783 24.7938C16.2783 24.7938 17.503 21.3757 17.2278 19.7618C17.6264 19.5782 18.0701 19.4761 18.5372 19.4761C20.2709 19.4762 21.676 20.8813 21.676 22.615Z" fill="#FFA1AC"/>
<path d="M20.3776 23.3991L16.2783 24.7938C15.7337 24.2299 15.3983 23.4614 15.3983 22.615C15.3983 21.3484 16.148 20.2577 17.2277 19.7618C17.5029 21.3756 18.5607 22.5987 20.3776 23.3991Z" fill="#FF8A98"/>
<path d="M18.5111 21.5939C18.2945 21.5939 18.1188 21.4183 18.1188 21.2016V21.0455C18.1188 20.8288 18.2945 20.6531 18.5111 20.6531C18.7278 20.6531 18.9035 20.8288 18.9035 21.0455V21.2016C18.9035 21.4183 18.7278 21.5939 18.5111 21.5939Z" fill="#FFF8E6"/>
<path d="M19.6995 22.1306C19.5876 22.1306 19.4764 22.0829 19.3988 21.9905C19.2595 21.8245 19.2811 21.577 19.4471 21.4377L19.5667 21.3374C19.7327 21.1981 19.9802 21.2197 20.1194 21.3857C20.2587 21.5517 20.2371 21.7992 20.0711 21.9385L19.9515 22.0388C19.878 22.1005 19.7885 22.1306 19.6995 22.1306Z" fill="#FFF8E6"/>
<path d="M17.3749 22.1307C17.2859 22.1307 17.1964 22.1005 17.1229 22.0388L17.0033 21.9385C16.8373 21.7992 16.8157 21.5517 16.955 21.3857C17.0942 21.2197 17.3417 21.1981 17.5077 21.3374L17.6273 21.4377C17.7933 21.577 17.815 21.8245 17.6757 21.9905C17.598 22.083 17.4869 22.1307 17.3749 22.1307Z" fill="#FFF1CF"/>
<path d="M29 23.7685V25.3379C29 27.3604 27.3605 28.9999 25.338 28.9999H24.6501C19.8522 28.3405 17.7777 26.1965 20.2856 23.2454H28.4769C28.7657 23.2454 29 23.4797 29 23.7685Z" fill="#B5E9F1"/>
<path d="M24.6501 28.9999H16.9678C14.9453 28.9999 13.3058 27.3604 13.3058 25.3379V23.7685C13.3058 23.4796 13.54 23.2454 13.829 23.2454H20.2855C20.3102 25.6173 21.2544 28.0676 24.6501 28.9999Z" fill="#9BE1EC"/>
</svg>
