<svg width="32" height="32" viewBox="0 0 32 32" fill="none" xmlns="http://www.w3.org/2000/svg">
<path d="M23.1571 28.9999H18.7065C18.4073 28.9999 18.1577 28.7714 18.1314 28.4733L17.5394 21.7574C17.5205 21.5424 17.6899 21.3574 17.9057 21.3574H23.9579C24.1738 21.3574 24.3432 21.5424 24.3242 21.7574L23.7322 28.4733C23.7059 28.7714 23.4563 28.9999 23.1571 28.9999Z" fill="#E5F9F6"/>
<path d="M23.958 21.3574H21.4754L20.8017 28.9999H23.1571C23.4563 28.9999 23.7059 28.7714 23.7322 28.4733L24.3242 21.7574C24.3432 21.5424 24.1738 21.3574 23.958 21.3574Z" fill="#D6E5E2"/>
<path d="M12.6489 6.53969V4.64185H9.65358V6.53969C9.65358 8.04504 8.9889 9.47362 7.83744 10.4432L7.34258 10.8599C7.12544 11.0428 7.00006 11.3122 7.00006 11.5961V28.0178C7.00006 28.5602 7.43977 28.9999 7.98217 28.9999H14.3202C14.8626 28.9999 15.3023 28.5602 15.3023 28.0178V11.5961C15.3023 11.3122 15.177 11.0428 14.9598 10.8599L14.4649 10.4433C13.3135 9.47362 12.6489 8.04504 12.6489 6.53969Z" fill="#E5F9F6"/>
<path d="M17.7057 23.6436L18.1314 28.4733C18.1577 28.7714 18.4073 29 18.7065 29H23.1571C23.4563 29 23.706 28.7714 23.7322 28.4733L24.158 23.6436H17.7057Z" fill="#FD9727"/>
<path d="M7.83738 10.4433L7.34252 10.86C7.12538 11.0428 7 11.3122 7 11.5961V28.0178C7 28.5602 7.43971 28.9999 7.98211 28.9999H14.3202C14.8626 28.9999 15.3023 28.5602 15.3023 28.0178V11.5962C15.3023 11.3123 15.177 11.0429 14.9598 10.86L14.4649 10.4433C13.7391 9.83219 13.207 9.03859 12.9125 8.15845H9.38971C9.09533 9.03853 8.5632 9.83214 7.83738 10.4433Z" fill="#FD9727"/>
<path d="M15.3023 28.0179V11.5962C15.3023 11.4898 15.2847 11.3853 15.2512 11.2868C15.24 11.2539 15.2271 11.2217 15.2125 11.1903C15.1833 11.1274 15.1473 11.0677 15.105 11.0123C15.0627 10.9569 15.0141 10.9058 14.9598 10.8601L14.465 10.4434C14.4236 10.4085 14.3829 10.373 14.3428 10.3369C14.3305 10.3258 14.3184 10.3145 14.3061 10.3033C14.2779 10.2775 14.2501 10.2515 14.2225 10.2251C14.2094 10.2126 14.1964 10.2 14.1834 10.1873C14.1552 10.1598 14.1275 10.1318 14.1 10.1037C14.0897 10.0932 14.0793 10.0828 14.0692 10.0722C14.0317 10.0331 13.9947 9.99357 13.9586 9.95335C13.9564 9.95096 13.9544 9.94847 13.9522 9.94609C13.9184 9.90835 13.8852 9.87012 13.8526 9.83147C13.8432 9.82025 13.8339 9.80893 13.8246 9.7976C13.7988 9.76652 13.7734 9.73514 13.7483 9.7035C13.7389 9.69162 13.7296 9.67979 13.7204 9.66786C13.693 9.63261 13.6662 9.59707 13.6399 9.56116C13.6345 9.55385 13.629 9.54659 13.6236 9.53923C13.5908 9.49408 13.5587 9.44848 13.5274 9.40237C13.5268 9.40146 13.5262 9.40049 13.5256 9.39958C13.496 9.35576 13.4672 9.31137 13.4389 9.26668C13.4329 9.25729 13.4271 9.24779 13.4213 9.23835C13.3976 9.20036 13.3744 9.16208 13.3518 9.12353C13.3463 9.11419 13.3408 9.10485 13.3353 9.09545C13.3089 9.0498 13.2831 9.00384 13.2581 8.95738C13.2576 8.95656 13.2572 8.95575 13.2567 8.95494C13.2036 8.85602 13.1539 8.75532 13.1074 8.65315C13.104 8.64568 13.1007 8.63817 13.0973 8.6307C13.0774 8.58627 13.058 8.54158 13.0394 8.49659C13.0366 8.49004 13.0339 8.48349 13.0312 8.47694C12.9882 8.37223 12.9486 8.26614 12.9126 8.15869H10.589C10.6429 8.60191 10.7521 9.03731 10.921 9.45209C11.0772 9.83584 11.2873 10.2144 11.5595 10.4436L11.699 10.5611C12.1415 10.9337 12.3968 11.4826 12.3968 12.061V29H14.3203C14.422 29 14.5201 28.9845 14.6124 28.9558C15.012 28.8315 15.3023 28.4585 15.3023 28.0179Z" fill="#E57F23"/>
<path d="M12.7161 5.73477H9.58625C9.42994 5.73477 9.30319 5.60802 9.30319 5.45171V3.28305C9.30319 3.12675 9.42994 3 9.58625 3H12.7161C12.8724 3 12.9991 3.12675 12.9991 3.28305V5.45171C12.9991 5.60807 12.8724 5.73477 12.7161 5.73477Z" fill="#4A4256"/>
<path d="M12.7161 3H10.1V5.73477H12.7161C12.8724 5.73477 12.9991 5.60802 12.9991 5.45171V3.28305C12.9991 3.12675 12.8724 3 12.7161 3Z" fill="#352F3F"/>
<path d="M7.00006 19.5387L15.3023 23.3815V17.6196L7.00006 13.7767V19.5387Z" fill="#4A4256"/>
<path d="M15.3023 23.3816V17.6197L12.3967 16.2748V22.0367L15.3023 23.3816Z" fill="#352F3F"/>
<path d="M15.3023 19.1032V17.6196L7.00006 13.7767V15.2193L15.3023 19.1032Z" fill="#FDC74F"/>
<path d="M15.3023 19.1032V17.6197L12.3967 16.2748V17.744L15.3023 19.1032Z" fill="#E5A535"/>
<path d="M7.00006 18.1599V19.5388L15.3023 23.3816V22.0438L7.00006 18.1599Z" fill="#FDC74F"/>
<path d="M15.3023 23.3816V22.0437L12.3967 20.6844V22.0367L15.3023 23.3816Z" fill="#E5A535"/>
<path d="M13.507 25.9581H8.79526C8.57842 25.9581 8.40262 25.7823 8.40262 25.5655C8.40262 25.3487 8.57842 25.1729 8.79526 25.1729H13.507C13.7239 25.1729 13.8997 25.3487 13.8997 25.5655C13.8997 25.7823 13.7239 25.9581 13.507 25.9581Z" fill="white"/>
<path d="M13.507 27.3469H8.79526C8.57842 27.3469 8.40262 27.1711 8.40262 26.9543C8.40262 26.7374 8.57842 26.5616 8.79526 26.5616H13.507C13.7239 26.5616 13.8997 26.7374 13.8997 26.9543C13.8997 27.1711 13.7239 27.3469 13.507 27.3469Z" fill="#E9EAEB"/>
<path d="M13.507 27.3469H8.79526C8.57842 27.3469 8.40262 27.1711 8.40262 26.9543C8.40262 26.7374 8.57842 26.5616 8.79526 26.5616H13.507C13.7239 26.5616 13.8997 26.7374 13.8997 26.9543C13.8997 27.1711 13.7239 27.3469 13.507 27.3469Z" fill="white"/>
<path d="M21.2739 23.6435L20.8017 28.9999H23.1571C23.4563 28.9999 23.7059 28.7713 23.7322 28.4732L24.1579 23.6434L21.2739 23.6435Z" fill="#E57F23"/>
<path d="M12.6488 5.73474H10.5477L10.5491 7.50441C10.5492 7.72328 10.5626 7.94174 10.5889 8.15837H12.9125C12.7398 7.64218 12.6488 7.09623 12.6488 6.53972L12.6488 5.73474Z" fill="#D6E5E2"/>
<path d="M23.422 27.6575H18.4417C18.294 27.6575 18.1571 27.6076 18.0477 27.5233L18.1314 28.4732C18.1577 28.7713 18.4073 28.9999 18.7065 28.9999H23.1571C23.4563 28.9999 23.706 28.7713 23.7322 28.4732L23.816 27.5233C23.7065 27.6076 23.5697 27.6575 23.422 27.6575Z" fill="#D7E0DC"/>
<path d="M23.422 27.6575H20.92L20.8017 28.9999H23.1571C23.3254 28.9999 23.478 28.9276 23.584 28.8112C23.6665 28.7207 23.7207 28.6036 23.7322 28.4732L23.8159 27.5233C23.7065 27.6076 23.5697 27.6575 23.422 27.6575Z" fill="#CBD1CF"/>
</svg>
