<svg width="32" height="32" viewBox="0 0 32 32" fill="none" xmlns="http://www.w3.org/2000/svg">
<path d="M16 3C8.85508 3 3 8.85508 3 16C3 23.1449 8.85508 29 16 29C23.1449 29 29 23.1449 29 16C29 8.85508 23.1449 3 16 3ZM6.09766 16C6.09766 10.546 10.546 6.09766 16 6.09766C18.0566 6.09766 20.0372 6.73745 21.7281 7.94097L16 13.6691L7.94107 21.7281C6.73745 20.0371 6.09766 18.0566 6.09766 16ZM16 25.9023C13.9434 25.9023 11.9628 25.2624 10.2719 24.0589L24.059 10.2718C25.2626 11.9628 25.9023 13.9433 25.9023 16C25.9023 21.4539 21.454 25.9023 16 25.9023Z" fill="#FF3636"/>
<path d="M29 16C29 23.1449 23.1449 29 16 29V25.9023C21.454 25.9023 25.9023 21.4539 25.9023 16C25.9023 13.9433 25.2626 11.9628 24.0589 10.2719L16 18.3308V13.6691L21.7281 7.94097C20.0372 6.73745 18.0566 6.09766 16 6.09766V3C23.1449 3 29 8.85508 29 16Z" fill="#F40000"/>
</svg>
