<svg width="32" height="32" viewBox="0 0 32 32" fill="none" xmlns="http://www.w3.org/2000/svg">
<path d="M23.0617 13.5227C23.0617 13.5227 23.3147 13.2678 23.3147 12.0861C23.3147 10.3711 22.6812 9.13477 22.6812 9.13477H20.4988C20.4988 9.13477 19.8654 10.3711 19.8654 12.0861C19.8654 13.2677 20.1184 13.5227 20.1184 13.5227L18.1707 15.0735C17.8564 15.3237 17.6734 15.7035 17.6734 16.1051V28.2192C17.6734 28.6504 18.0229 29 18.4541 29H24.7259C25.1571 29 25.5067 28.6504 25.5067 28.2192V16.1051C25.5067 15.7035 25.3236 15.3237 25.0094 15.0735L23.0617 13.5227Z" fill="#FD9727"/>
<path d="M25.0094 15.0735L23.0617 13.5227C23.0617 13.5227 23.3147 13.2678 23.3147 12.0861C23.3147 10.3711 22.6812 9.13477 22.6812 9.13477H21.0442C20.9899 10.0475 20.9111 11.1607 20.8428 12.084C20.7576 13.2354 21.2473 14.3543 22.1505 15.0735C22.4647 15.3237 22.6478 15.7034 22.6478 16.1051V28.2191C22.6478 28.6503 22.2982 28.9999 21.867 28.9999H24.7259C25.1571 28.9999 25.5067 28.6503 25.5067 28.2191V16.1051C25.5067 15.7035 25.3236 15.3237 25.0094 15.0735Z" fill="#E57F23"/>
<path d="M25.5069 16.8892H17.6734V27.3607H25.5069V16.8892Z" fill="#4A4256"/>
<path d="M23.3133 11.9672C23.2851 10.3144 22.6812 9.13477 22.6812 9.13477H20.4988C20.4988 9.13477 19.8949 10.3144 19.8667 11.9672H23.3133Z" fill="#4A4256"/>
<path d="M10.7959 13.7707V11.1869H8.81937V13.7707C8.81937 14.5741 8.22061 15.2516 7.4233 15.3502C6.61044 15.4507 6 16.1414 6 16.9604V28.2851C6 28.6799 6.32002 28.9999 6.7148 28.9999H12.9004C13.2952 28.9999 13.6152 28.6799 13.6152 28.2851V16.9604C13.6152 16.1414 13.0048 15.4507 12.1919 15.3502C11.3946 15.2516 10.7959 14.5741 10.7959 13.7707Z" fill="#77D057"/>
<path d="M12.1919 15.3502C11.3946 15.2516 10.7959 14.5741 10.7959 13.7707V11.1869H9.40907V28.2851C9.40907 28.6799 9.08905 28.9999 8.69427 28.9999H12.9004C13.2952 28.9999 13.6152 28.6799 13.6152 28.2851V16.9604C13.6152 16.1414 13.0048 15.4507 12.1919 15.3502Z" fill="#68B543"/>
<path d="M10.8711 13.5492H8.74412C8.63377 13.5492 8.54434 13.4598 8.54434 13.3495V11.3867C8.54434 11.2763 8.63377 11.1869 8.74412 11.1869H10.8711C10.9815 11.1869 11.0709 11.2763 11.0709 11.3867V13.3495C11.0709 13.4598 10.9815 13.5492 10.8711 13.5492Z" fill="#602952"/>
<path d="M7.4233 15.3502C6.61044 15.4507 6 16.1414 6 16.9604V28.2851C6 28.6799 6.32002 28.9999 6.7148 28.9999H12.9004C13.2952 28.9999 13.6152 28.6799 13.6152 28.2851V16.9604C13.6152 16.1414 13.0048 15.4507 12.1919 15.3502C11.9775 15.3237 7.63779 15.3237 7.4233 15.3502Z" fill="#306318"/>
<path d="M13.5536 16.5163C13.5268 16.422 13.4916 16.331 13.4489 16.2443C13.4275 16.2009 13.4043 16.1586 13.3792 16.1175C13.1883 15.8039 12.8933 15.5592 12.5387 15.4327C12.4284 15.3933 12.3125 15.3652 12.192 15.3502C12.0721 15.3354 10.6652 15.3289 9.40911 15.3306V28.2852C9.40911 28.68 9.08909 29 8.69437 29H12.9005C13.0732 29 13.2316 28.9387 13.3552 28.8368C13.4787 28.7348 13.5674 28.5921 13.6008 28.4292C13.6103 28.3827 13.6153 28.3345 13.6153 28.2852V16.9605C13.6153 16.8069 13.5938 16.6579 13.5536 16.5163Z" fill="#2C5114"/>
<path d="M12.5316 25.7971V17.8251C12.5316 17.5429 12.3029 17.3142 12.0207 17.3142H7.59448C7.31234 17.3142 7.08362 17.5429 7.08362 17.8251V25.7971C7.08362 25.9999 7.24805 26.1644 7.45087 26.1644H12.1643C12.3671 26.1643 12.5316 25.9999 12.5316 25.7971Z" fill="#E9EAEB"/>
<path d="M9.40908 26.1643H12.1643C12.3671 26.1643 12.5316 25.9999 12.5316 25.797V17.8251C12.5316 17.5429 12.3028 17.3142 12.0207 17.3142H9.40903L9.40908 26.1643Z" fill="#B6D1C6"/>
<path d="M9.80737 21.0202C10.5363 21.0202 11.1272 20.4293 11.1272 19.7003C11.1272 18.9714 10.5363 18.3805 9.80737 18.3805C9.07844 18.3805 8.48752 18.9714 8.48752 19.7003C8.48752 20.4293 9.07844 21.0202 9.80737 21.0202Z" fill="#602952"/>
<path d="M9.40909 20.9591C9.53482 20.9989 9.66868 21.0204 9.80762 21.0204C10.5365 21.0204 11.1275 20.4296 11.1275 19.7006C11.1275 18.9717 10.5366 18.3807 9.80762 18.3807C9.66868 18.3807 9.53487 18.4023 9.40909 18.4421V20.9591Z" fill="#512047"/>
<path d="M10.9045 25.342H8.71074C8.49731 25.342 8.32425 25.1689 8.32425 24.9555C8.32425 24.742 8.49731 24.569 8.71074 24.569H10.9045C11.1179 24.569 11.291 24.742 11.291 24.9555C11.291 25.1689 11.118 25.342 10.9045 25.342Z" fill="white"/>
<path d="M12.5313 22.1034H7.08347V23.4892H12.5313V22.1034Z" fill="#FC502A"/>
<path d="M12.5318 22.1034H9.40924V23.4892H12.5318V22.1034Z" fill="#E60D28"/>
<path d="M18.9032 26.9081C18.7743 26.8146 18.7065 26.6579 18.7093 26.4986L18.9639 11.846C18.9732 11.6201 18.8893 11.4004 18.7318 11.2383L17.2378 9.70025C17.0167 9.47265 16.893 9.16776 16.893 8.85043V3.0011H15.5989H14.3048V8.85048C14.3048 9.16781 14.1811 9.47265 13.96 9.70031L12.4659 11.2383C12.3084 11.4005 12.2245 11.6202 12.2338 11.846L12.4885 26.4987C12.4913 26.658 12.4235 26.8147 12.2945 26.9082C12.2069 26.9716 12.1512 27.0758 12.1544 27.193L12.1886 28.4551C12.1967 28.7584 12.445 29 12.7484 29H15.5989H18.4494C18.7528 29 19.001 28.7584 19.0092 28.4551L19.0433 27.193C19.0465 27.0758 18.9908 26.9716 18.9032 26.9081Z" fill="#CDEAE0"/>
<path d="M18.9032 26.9081C18.7743 26.8146 18.7065 26.6579 18.7093 26.4986L18.9639 11.846C18.9732 11.6201 18.8893 11.4004 18.7318 11.2383L17.2378 9.70025C17.0167 9.4726 16.893 9.16776 16.893 8.85043V3.0011H15.5989H14.3047V8.70042C14.3047 8.79823 14.3341 8.89375 14.3889 8.97469L15.9232 11.2383C16.0807 11.4004 16.1647 11.6201 16.1554 11.846L15.9007 26.4986C15.8979 26.6579 15.9656 26.8146 16.0947 26.9081C16.1822 26.9716 16.2379 27.0758 16.2347 27.193L16.2006 28.4551C16.1924 28.7584 15.9442 29 15.6408 29H18.4494C18.7528 29 19.001 28.7583 19.0092 28.4551L19.0433 27.193C19.0465 27.0758 18.9908 26.9716 18.9032 26.9081Z" fill="#B6D1C6"/>
<path d="M16.8179 8.03765H14.3799C14.2617 8.03765 14.166 7.94187 14.166 7.8237V3.21394C14.166 3.09577 14.2617 3 14.3799 3H16.8179C16.9361 3 17.0318 3.09577 17.0318 3.21394V7.8237C17.0318 7.94187 16.936 8.03765 16.8179 8.03765Z" fill="#E60D28"/>
<path d="M13.8106 14.5942C14.9579 13.8402 16.2391 13.8402 17.3871 14.5957C17.4941 14.6661 17.6368 14.5932 17.6421 14.4653L17.6728 13.7196C17.6835 13.4606 17.5324 13.2215 17.2934 13.1207C16.1938 12.6569 15.0048 12.6563 13.9047 13.1195C13.6656 13.2202 13.5143 13.4593 13.5249 13.7186L13.5556 14.4637C13.5609 14.5917 13.7036 14.6645 13.8106 14.5942Z" fill="#FC502A"/>
<path d="M17.0638 24.9949H14.134C13.9205 24.9949 13.7475 24.8219 13.7475 24.6084C13.7475 24.395 13.9205 24.2219 14.134 24.2219H17.0638C17.2772 24.2219 17.4503 24.395 17.4503 24.6084C17.4503 24.8219 17.2773 24.9949 17.0638 24.9949Z" fill="white"/>
<path d="M17.0638 26.207H14.134C13.9205 26.207 13.7475 26.0339 13.7475 25.8205C13.7475 25.607 13.9205 25.434 14.134 25.434H17.0638C17.2772 25.434 17.4503 25.607 17.4503 25.8205C17.4503 26.0339 17.2773 26.207 17.0638 26.207Z" fill="white"/>
<path d="M17.0921 19.4812H14.1057C13.9689 19.4812 13.8573 19.3717 13.8548 19.2349L13.8117 16.8854C13.8091 16.7451 13.9222 16.6299 14.0626 16.6299H17.1352C17.2756 16.6299 17.3887 16.7451 17.3861 16.8854L17.343 19.2349C17.3405 19.3717 17.2289 19.4812 17.0921 19.4812Z" fill="#FC502A"/>
<path d="M17.032 3.98364H14.1659V4.75663H17.032V3.98364Z" fill="#E9EAEB"/>
<path d="M25.5069 16.8892H22.6479V27.3607H25.5069V16.8892Z" fill="#352F3F"/>
<path d="M23.3628 19.8154C22.167 19.2819 21.0158 19.2807 19.8171 19.8154C19.6755 19.8786 19.509 19.8241 19.4299 19.6908C19.3307 19.5234 19.2314 19.356 19.1322 19.1886C19.0392 19.0316 19.1029 18.8289 19.2685 18.7523C20.8106 18.0386 22.3688 18.0383 23.9115 18.7523C24.0771 18.8289 24.1408 19.0317 24.0478 19.1886C23.9486 19.356 23.8493 19.5234 23.7501 19.6908C23.671 19.8241 23.5045 19.8786 23.3628 19.8154Z" fill="#E9EAEB"/>
<path d="M21.5901 23.7546C22.6688 23.7546 23.5432 23.1551 23.5432 22.4156C23.5432 21.6761 22.6688 21.0767 21.5901 21.0767C20.5114 21.0767 19.637 21.6761 19.637 22.4156C19.637 23.1551 20.5114 23.7546 21.5901 23.7546Z" fill="#E9EAEB"/>
<path d="M23.616 25.865H19.5641C19.3506 25.865 19.1776 25.692 19.1776 25.4785C19.1776 25.2651 19.3506 25.092 19.5641 25.092H23.616C23.8294 25.092 24.0025 25.2651 24.0025 25.4785C24.0025 25.692 23.8294 25.865 23.616 25.865Z" fill="white"/>
<path d="M22.6478 21.2904V23.541C23.1863 23.3026 23.5431 22.8879 23.5431 22.4157C23.5431 21.9436 23.1863 21.5288 22.6478 21.2904Z" fill="#B6D1C6"/>
<path d="M23.9116 18.7522C23.4913 18.5577 23.0698 18.4166 22.6478 18.3281V19.559C22.8848 19.6231 23.123 19.7084 23.3628 19.8154C23.5045 19.8785 23.671 19.8241 23.7501 19.6907C23.8493 19.5233 23.9486 19.3559 24.0478 19.1885C24.1409 19.0316 24.0771 18.8289 23.9116 18.7522Z" fill="#B6D1C6"/>
<path d="M23.3133 11.9672C23.2878 10.4699 22.7898 9.36089 22.6963 9.16554C22.6955 9.16386 22.6949 9.16275 22.6942 9.16117C22.6913 9.15503 22.6888 9.15 22.6869 9.14604C22.6834 9.13903 22.6813 9.13477 22.6813 9.13477H21.0442C20.9922 10.0095 20.9177 11.0679 20.8515 11.9672L23.3133 11.9672Z" fill="#352F3F"/>
<path d="M22.9039 9.50729H20.2761C20.1599 9.50729 20.0656 9.41304 20.0656 9.2968V6.99748C20.0656 6.88124 20.1599 6.78699 20.2761 6.78699H22.9039C23.0202 6.78699 23.1144 6.88124 23.1144 6.99748V9.2968C23.1144 9.41304 23.0202 9.50729 22.9039 9.50729Z" fill="#4A4256"/>
<path d="M23.1146 7.76843H20.0657V8.48496H23.1146V7.76843Z" fill="#E9EAEB"/>
<path d="M17.1352 16.63H16.0722L16.0227 19.4813H17.0921C17.2289 19.4813 17.3405 19.3718 17.343 19.235L17.3861 16.8855C17.3887 16.7452 17.2756 16.63 17.1352 16.63Z" fill="#E60D28"/>
<path d="M17.2934 13.1206C16.9166 12.9617 16.5293 12.8585 16.1386 12.8083L16.1166 14.0753C16.549 14.1523 16.9766 14.3253 17.387 14.5955C17.494 14.6659 17.6368 14.5931 17.642 14.4651L17.6727 13.7195C17.6835 13.4604 17.5324 13.2214 17.2934 13.1206Z" fill="#E60D28"/>
</svg>
