<svg width="32" height="32" viewBox="0 0 32 32" fill="none" xmlns="http://www.w3.org/2000/svg">
<path d="M28.4429 8.23834C27.9539 6.03051 25.8136 4.00802 23.5997 3.57843C22.2505 3.3088 18.4873 2.9757 15.9992 3.00159C13.5111 2.97417 9.74842 3.30626 8.39924 3.57691C6.18531 4.00802 4.04501 6.03051 3.55856 8.23834C3.27776 9.57889 3.00406 11.4028 3 13.8925C3.00406 16.3806 3.27776 18.2051 3.55856 19.5461C4.04755 21.754 6.18785 23.7765 8.40178 24.206C9.12994 24.3513 10.5624 24.5158 12.1172 24.6316C12.2932 24.9081 12.4845 25.2026 12.691 25.5151C13.5162 26.7653 14.1473 27.6361 14.6262 28.2429C15.4224 29.2524 16.5811 29.2524 17.3773 28.2429C17.8562 27.6361 18.4873 26.7653 19.3125 25.5151C19.519 25.203 19.7102 24.9085 19.8863 24.6316C21.4416 24.5158 22.8736 24.3513 23.6022 24.206C25.8161 23.7765 27.9564 21.754 28.4454 19.5461C28.7237 18.2051 28.9969 16.3816 29.0015 13.8925C28.9943 11.4023 28.7212 9.57939 28.4429 8.23834Z" fill="#F9973E"/>
<path d="M15.9992 3.00159C13.5111 2.97417 9.74841 3.30626 8.39924 3.57691C6.18531 4.00802 4.04501 6.03051 3.55856 8.23834C3.27776 9.57888 3.00406 11.4028 3 13.8925C3.00406 16.3806 3.27776 18.2051 3.55856 19.5461C3.84647 20.8455 4.70665 22.081 5.81717 22.965C6.90042 23.2244 8.01048 23.3551 9.12435 23.3545C16.9254 23.3545 23.2493 17.0306 23.2493 9.23004C23.2511 7.19855 22.8128 5.19079 21.9646 3.34485C20.2295 3.14986 17.7861 2.98331 15.9992 3.00159Z" fill="#FCA84C"/>
<path d="M17.4352 21.4412C17.4015 21.5993 17.3227 21.7443 17.2083 21.8587C17.094 21.973 16.949 22.0518 16.7908 22.0855C16.2663 22.1661 15.7326 22.1661 15.208 22.0855C15.0499 22.0519 14.9048 21.9731 14.7905 21.8588C14.6761 21.7444 14.5973 21.5993 14.5637 21.4412C14.4824 20.9165 14.4824 20.3825 14.5637 19.8579C14.5973 19.6997 14.6761 19.5547 14.7905 19.4403C14.9048 19.3259 15.0499 19.2472 15.208 19.2135C15.7326 19.133 16.2663 19.133 16.7908 19.2135C16.9492 19.2474 17.0944 19.3265 17.2088 19.4412C17.3232 19.5559 17.4018 19.7014 17.4352 19.8599C17.5164 20.3846 17.5164 20.9186 17.4352 21.4432V21.4412ZM20.5265 13.1242C20.1345 13.6787 19.547 14.185 18.6777 14.7166C17.5774 15.395 17.4012 15.6738 17.4012 16.2196V16.4355C17.4047 16.622 17.371 16.8075 17.3021 16.9809C17.2331 17.1543 17.1303 17.3122 16.9996 17.4455C16.8689 17.5787 16.7129 17.6845 16.5408 17.7567C16.3688 17.829 16.184 17.8662 15.9974 17.8662C15.8108 17.8662 15.626 17.829 15.4539 17.7567C15.2819 17.6845 15.1259 17.5787 14.9952 17.4455C14.8645 17.3122 14.7617 17.1543 14.6927 16.9809C14.6238 16.8075 14.5901 16.622 14.5936 16.4355V15.9353C14.5936 15.2914 14.7546 14.745 15.0857 14.2652C15.4066 13.8001 15.888 13.3867 16.6009 12.9627C17.9155 12.1894 18.1562 11.7552 18.1562 11.1789C18.1562 10.4548 17.5393 9.98663 16.5821 9.98663C15.5366 9.98663 14.8556 10.4619 14.5586 11.3998C14.4623 11.7015 14.2722 11.9646 14.0158 12.1505C13.7595 12.3365 13.4504 12.4357 13.1338 12.4336C13.0972 12.4336 13.0601 12.4336 13.0241 12.4296C12.7966 12.4135 12.5757 12.3457 12.3784 12.2313C12.1811 12.1169 12.0126 11.9589 11.8856 11.7695C11.7588 11.5833 11.6762 11.3707 11.6442 11.1478C11.6122 10.9248 11.6315 10.6975 11.7008 10.4832C12.0055 9.50668 12.6303 8.66127 13.4745 8.08347C14.3255 7.50358 15.4005 7.19739 16.5821 7.19739C17.8094 7.19739 18.9484 7.58889 19.7892 8.29978C20.655 9.03099 21.1313 10.0399 21.1313 11.1403C21.1339 11.8969 20.9353 12.5479 20.5265 13.1242Z" fill="white"/>
</svg>
