<svg width="32" height="32" viewBox="0 0 32 32" fill="none" xmlns="http://www.w3.org/2000/svg">
<path d="M16 29C23.1797 29 29 23.1797 29 16C29 8.8203 23.1797 3 16 3C8.8203 3 3 8.8203 3 16C3 23.1797 8.8203 29 16 29Z" fill="#FFD93B"/>
<path d="M29 16C29 23.1825 23.1784 29 16 29C11.9131 29 8.265 27.115 5.88031 24.1616C8.11062 25.9653 10.9503 27.0419 14.0419 27.0419C21.2203 27.0419 27.0419 21.2244 27.0419 14.0419C27.0419 10.9503 25.9653 8.11062 24.1616 5.88031C27.1109 8.265 29 11.9131 29 16Z" fill="#F4C534"/>
<path d="M11.6767 23.5278C11.3038 23.2784 11.2038 22.7738 11.4533 22.4009C13.335 19.5896 16.2389 19.5896 20.2583 19.5896C20.7068 19.5896 21.0708 19.9536 21.0708 20.4021C21.0708 20.8506 20.7068 21.2146 20.2583 21.2146C16.169 21.2146 14.1435 21.3032 12.8036 23.3052C12.5526 23.6789 12.048 23.7756 11.6767 23.5278Z" fill="#3E4347"/>
<path d="M11.2875 15.9374C12.439 15.9374 13.3724 15.004 13.3724 13.8526C13.3724 12.7011 12.439 11.7677 11.2875 11.7677C10.1361 11.7677 9.20264 12.7011 9.20264 13.8526C9.20264 15.004 10.1361 15.9374 11.2875 15.9374Z" fill="#3E4347"/>
<path d="M12.4664 13.4902C12.3218 13.6267 12.0488 13.5771 11.8741 13.3829C11.6937 13.1896 11.6629 12.9149 11.8148 12.7825C11.9651 12.6444 12.2316 12.6899 12.412 12.8841C12.5932 13.0831 12.6167 13.3529 12.4664 13.4902Z" fill="#5A5F63"/>
<path d="M20.7157 15.9374C21.8672 15.9374 22.8006 15.004 22.8006 13.8526C22.8006 12.7011 21.8672 11.7677 20.7157 11.7677C19.5643 11.7677 18.6309 12.7011 18.6309 13.8526C18.6309 15.004 19.5643 15.9374 20.7157 15.9374Z" fill="#3E4347"/>
<path d="M21.8947 13.4902C21.7501 13.6267 21.4771 13.5771 21.3024 13.3829C21.122 13.1896 21.0911 12.9149 21.2431 12.7825C21.3934 12.6444 21.6599 12.6899 21.8402 12.8841C22.0214 13.0831 22.045 13.3529 21.8947 13.4902Z" fill="#5A5F63"/>
</svg>
