<svg width="32" height="32" viewBox="0 0 32 32" fill="none" xmlns="http://www.w3.org/2000/svg">
<path fill-rule="evenodd" clip-rule="evenodd" d="M30.5605 20.381C23.6545 22.724 17.363 18.1195 17.363 11.334C17.363 8.08452 19.247 4.90152 21.7025 3.09452C21.795 3.02802 21.7675 2.92052 21.665 2.90502C10.2225 2.51052 5.83401 12.6005 9.09651 20.0925C13.326 29.805 27.7915 29.9365 30.9725 20.693C31.0325 20.521 31.0325 20.2205 30.5605 20.381Z" fill="#FFD670"/>
<path fill-rule="evenodd" clip-rule="evenodd" d="M17.363 11.334C17.363 8.08449 19.247 4.9015 21.7025 3.0945C21.795 3.028 21.7675 2.9205 21.665 2.905C20.553 2.866 19.5075 2.927 18.5285 3.0755C16.5985 5.2855 15.2875 8.2295 15.2875 11.2195C15.2875 19.0615 22.185 24.5125 30.0745 22.6165C30.4305 22.0275 30.7335 21.3875 30.973 20.693C31.033 20.5205 31.033 20.2205 30.5605 20.3805C23.6545 22.724 17.363 18.1195 17.363 11.334Z" fill="#FFC942"/>
<path d="M24.953 15.172H23.1205C22.9235 15.172 22.7455 15.0565 22.6645 14.8775C22.584 14.698 22.616 14.488 22.7465 14.3405L23.842 13.1035H23.1205C22.8445 13.1035 22.6205 12.8795 22.6205 12.6035C22.6205 12.3275 22.8445 12.1035 23.1205 12.1035H24.953C25.15 12.1035 25.328 12.219 25.409 12.398C25.4895 12.5775 25.4575 12.7875 25.327 12.935L24.2315 14.172H24.953C25.229 14.172 25.453 14.396 25.453 14.672C25.453 14.948 25.229 15.172 24.953 15.172Z" fill="#5C5757"/>
<path d="M26.209 8.38651H24.375C24.178 8.38651 24 8.27101 23.919 8.09151C23.8385 7.912 23.8705 7.702 24.001 7.5545L25.0975 6.3175H24.375C24.099 6.3175 23.875 6.0935 23.875 5.8175C23.875 5.5415 24.099 5.3175 24.375 5.3175H26.209C26.406 5.3175 26.584 5.433 26.665 5.6125C26.7455 5.792 26.7135 6.002 26.583 6.1495L25.4865 7.3865H26.209C26.485 7.3865 26.709 7.6105 26.709 7.8865C26.709 8.1625 26.485 8.38651 26.209 8.38651Z" fill="#5C5757"/>
<path d="M30.9845 13.5355H27.7045C27.5085 13.5355 27.33 13.421 27.249 13.2425C27.168 13.064 27.1985 12.8545 27.328 12.7065L29.8835 9.78247H27.7045C27.4285 9.78247 27.2045 9.55847 27.2045 9.28247C27.2045 9.00647 27.4285 8.78247 27.7045 8.78247H30.9845C31.1805 8.78247 31.359 8.89697 31.44 9.07547C31.521 9.25397 31.4905 9.46347 31.361 9.61147L28.8055 12.5355H30.9845C31.2605 12.5355 31.4845 12.7595 31.4845 13.0355C31.4845 13.3115 31.2605 13.5355 30.9845 13.5355Z" fill="#5C5757"/>
<path fill-rule="evenodd" clip-rule="evenodd" d="M13.7815 8.82549C13.7815 5.89199 11.793 3.42049 9.088 2.67799C8.5475 2.52949 7.9775 2.45099 7.3905 2.45099C3.861 2.45099 1 5.30449 1 8.82549C1 12.341 3.8575 15.2 7.391 15.2C10.919 15.1995 13.7815 12.3445 13.7815 8.82549Z" fill="#76A8FA"/>
<path fill-rule="evenodd" clip-rule="evenodd" d="M11.559 8.8255C11.559 6.5285 9.69201 4.6665 7.39101 4.6665C5.08801 4.6665 3.22101 6.5285 3.22101 8.8255C3.22101 11.121 5.08801 12.983 7.39101 12.983C9.69201 12.9825 11.559 11.1205 11.559 8.8255Z" fill="#F0F0F0"/>
<path fill-rule="evenodd" clip-rule="evenodd" d="M7.598 2.7345C10.303 3.475 12.2895 5.9465 12.2895 8.88C12.2895 12.0665 9.947 14.7065 6.886 15.179C7.052 15.1925 7.2195 15.1995 7.391 15.1995C10.919 15.1995 13.782 12.3445 13.782 8.825C13.782 5.8915 11.7935 3.42 9.0885 2.6775C8.548 2.529 7.978 2.4505 7.391 2.4505C7.0555 2.4505 6.7255 2.476 6.4035 2.5255C6.814 2.5585 7.213 2.6285 7.598 2.7345Z" fill="#5694F7"/>
<path d="M7.39099 9.32498C7.33499 9.32498 7.27899 9.31548 7.22449 9.29648L5.83999 8.80848C5.57949 8.71648 5.44299 8.43148 5.53499 8.17098C5.62649 7.91048 5.91249 7.77348 6.17249 7.86598L6.89049 8.11898V6.55048C6.89049 6.27448 7.11449 6.05048 7.39049 6.05048C7.66649 6.05048 7.89049 6.27448 7.89049 6.55048V8.82548C7.89049 8.98798 7.81199 9.13998 7.67949 9.23348C7.59399 9.29398 7.49299 9.32498 7.39099 9.32498Z" fill="#5C5757"/>
<path fill-rule="evenodd" clip-rule="evenodd" d="M7.67151 4.92752C9.12101 5.57752 10.1305 7.03202 10.1305 8.71952C10.1305 10.8785 8.48251 12.6515 6.37451 12.858C6.69951 12.94 7.04001 12.9825 7.39101 12.9825C9.69251 12.9825 11.559 11.1205 11.559 8.82502C11.559 6.67102 9.92001 4.90152 7.81851 4.68802C7.67801 4.67252 7.53451 4.66602 7.39051 4.66602C7.25001 4.66602 7.11351 4.67302 6.97651 4.68652C7.21801 4.74652 7.44901 4.82652 7.67151 4.92752Z" fill="#DBDBDB"/>
<path fill-rule="evenodd" clip-rule="evenodd" d="M20.686 26.6305C20.686 28.223 19.401 29.549 17.762 29.549H8.941C7.3465 29.549 6.017 28.2655 6.017 26.6305C6.017 25.26 6.9925 24.1115 8.2775 23.801C8.2775 23.7585 8.2775 23.7585 8.2775 23.714C8.2775 21.5485 10.05 19.78 12.2215 19.78C13.83 19.78 15.221 20.7495 15.832 22.1335C15.928 22.12 16.0235 22.113 16.121 22.113C17.1235 22.113 17.962 22.818 18.1655 23.7565C19.5925 23.999 20.686 25.187 20.686 26.6305Z" fill="#BDE0FE"/>
<path fill-rule="evenodd" clip-rule="evenodd" d="M14.057 23.733C15.0595 23.733 15.898 24.436 16.1015 25.3765C17.205 25.5625 18.1085 26.315 18.463 27.3135C18.5655 27.607 18.622 27.921 18.622 28.2485C18.622 28.6905 18.523 29.112 18.345 29.491C19.4025 29.2775 20.239 28.501 20.5525 27.503C20.64 27.2265 20.686 26.9345 20.686 26.631C20.686 25.187 19.5925 23.9995 18.1655 23.757C17.962 22.8185 17.1235 22.1135 16.121 22.1135C16.0235 22.1135 15.9275 22.122 15.832 22.134C15.221 20.75 13.83 19.7805 12.2215 19.7805C11.157 19.7805 10.189 20.2035 9.47849 20.8915C9.25799 21.1065 9.06099 21.3455 8.89349 21.6065C9.17399 21.511 9.46649 21.446 9.76949 21.417C9.89799 21.405 10.026 21.398 10.158 21.398C11.7665 21.398 13.1575 22.369 13.77 23.7515C13.864 23.7395 13.9595 23.733 14.057 23.733Z" fill="#A2D2FF"/>
</svg>
