<svg width="32" height="32" viewBox="0 0 32 32" fill="none" xmlns="http://www.w3.org/2000/svg">
<path d="M16 29C23.1797 29 29 23.1797 29 16C29 8.8203 23.1797 3 16 3C8.8203 3 3 8.8203 3 16C3 23.1797 8.8203 29 16 29Z" fill="#FFD93B"/>
<path d="M16 24.3558C12.1983 24.3558 8.88575 21.7809 7.94487 18.0954C7.87094 17.8054 8.04562 17.5104 8.33569 17.4365C8.62412 17.3609 8.91987 17.5373 8.99381 17.8273C9.81281 21.0334 12.6931 23.2727 15.9992 23.2727C19.3052 23.2727 22.1864 21.0334 23.0046 17.8273C23.0777 17.5373 23.3726 17.3609 23.6635 17.4365C23.9536 17.5104 24.1283 17.8054 24.0543 18.0954C23.1143 21.7809 19.8017 24.3558 16 24.3558Z" fill="#3E4347"/>
<path d="M29 16C29 23.1825 23.1784 29 16 29C11.9131 29 8.265 27.115 5.88031 24.1616C8.11062 25.9653 10.9503 27.0419 14.0419 27.0419C21.2203 27.0419 27.0419 21.2244 27.0419 14.0419C27.0419 10.9503 25.9653 8.11062 24.1616 5.88031C27.1109 8.265 29 11.9131 29 16Z" fill="#F4C534"/>
<path d="M11.8018 16.5549C12.9021 16.5549 13.7941 15.4949 13.7941 14.1873C13.7941 12.8797 12.9021 11.8197 11.8018 11.8197C10.7015 11.8197 9.80957 12.8797 9.80957 14.1873C9.80957 15.4949 10.7015 16.5549 11.8018 16.5549Z" fill="#3E4347"/>
<path d="M12.7004 13.6779C12.5452 13.7998 12.2901 13.7396 12.1268 13.5414C11.9635 13.3431 11.9554 13.0774 12.1105 12.9556C12.2649 12.828 12.5209 12.8881 12.6834 13.0864C12.8475 13.2903 12.8491 13.5511 12.7004 13.6779Z" fill="#5A5F63"/>
<path d="M20.2006 16.5549C21.3009 16.5549 22.1929 15.4949 22.1929 14.1873C22.1929 12.8797 21.3009 11.8197 20.2006 11.8197C19.1003 11.8197 18.2084 12.8797 18.2084 14.1873C18.2084 15.4949 19.1003 16.5549 20.2006 16.5549Z" fill="#3E4347"/>
<path d="M21.0976 13.6779C20.9424 13.7998 20.6873 13.7396 20.524 13.5414C20.3607 13.3431 20.3526 13.0774 20.5078 12.9556C20.6621 12.828 20.9173 12.8881 21.0806 13.0864C21.2447 13.2903 21.2463 13.5511 21.0976 13.6779Z" fill="#5A5F63"/>
</svg>
