<svg width="32" height="32" viewBox="0 0 32 32" fill="none" xmlns="http://www.w3.org/2000/svg">
<path d="M26.4108 19.8753L26.3483 19.7291H11.2009L15 23.5283H26.3483L26.4108 23.3101V19.8753Z" fill="#EFEDEF"/>
<path d="M11.3873 19.7291H3.58356C3.29906 19.7291 3.0685 19.9598 3.0685 20.2442V23.0131C3.0685 23.2976 3.29912 23.5281 3.58356 23.5281H15.1864L11.3873 19.7291Z" fill="#F6A96C"/>
<path d="M13.8664 22.2081H3.0685V23.0131C3.0685 23.2976 3.29912 23.5282 3.58356 23.5282H15.1864L13.8664 22.2081Z" fill="#EA9B58"/>
<path d="M13.8555 22.2081L15.1755 23.5282H26.3482V22.2081H13.8555Z" fill="#E5E1E5"/>
<path d="M26.3482 23.5282H28.4164C28.7009 23.5282 28.9314 23.2976 28.9314 23.0132V20.2443C28.9314 19.9598 28.7008 19.7292 28.4164 19.7292H26.3482V23.5282Z" fill="#FFD15B"/>
<path d="M28.4165 19.7291H27.5896V21.6931C27.5896 21.9776 27.359 22.2081 27.0745 22.2081H26.3483V23.5282H28.4165C28.701 23.5282 28.9315 23.2976 28.9315 23.0131V20.2443C28.9315 19.9598 28.7009 19.7291 28.4165 19.7291Z" fill="#FFC344"/>
<path d="M25.1983 12.8396H24.8521C24.5144 12.8396 24.2408 12.5659 24.2408 12.2283C24.2408 10.4454 22.7954 9 21.0125 9H16.2528C16.0749 9 15.9308 9.14412 15.9308 9.32194V10.662C15.9308 11.5119 16.6198 12.2009 17.4697 12.2009H20.6358C21.0829 12.2009 21.4454 12.5633 21.4454 13.0104V13.886C21.4454 14.7359 22.1344 15.4249 22.9843 15.4249H25.4404C25.8876 15.4249 26.25 15.7873 26.25 16.2344V17.7011C26.25 17.8789 26.3941 18.023 26.5719 18.023H28.1046C28.2824 18.023 28.4265 17.8789 28.4265 17.7011V16.0678C28.4266 14.2849 26.9812 12.8396 25.1983 12.8396Z" fill="#E5E1E5"/>
<path d="M26.7025 13.2114C26.9396 13.6607 27.0744 14.1724 27.0744 14.7157V16.3489C27.0744 16.5267 26.9303 16.6709 26.7525 16.6709H26.2501V17.7011C26.2501 17.8789 26.3942 18.023 26.572 18.023H28.1046C28.2824 18.023 28.4266 17.8789 28.4266 17.7011V16.0678C28.4266 14.8282 27.7275 13.7524 26.7025 13.2114Z" fill="#D7D0D6"/>
</svg>
