<svg width="32" height="32" viewBox="0 0 32 32" fill="none" xmlns="http://www.w3.org/2000/svg">
<path d="M21.3171 11.984H19.8374L19.5824 10.7862L19.8374 9.923L20.9964 9.39685L21.3171 9.923L21.7824 10.8304L21.3171 11.984Z" fill="#FEF1DA"/>
<path d="M22.3739 11.9835H21.317V9.92254L21.9096 9.58789L22.3739 9.92254V11.9835Z" fill="#FAE2C0"/>
<path d="M22.374 8.46631V6.54069C22.374 6.24885 22.1374 6.01221 21.8455 6.01221H19.8374L19.3546 7.96749L19.8374 9.92277H21.317L22.374 8.46631Z" fill="#FACD2F"/>
<path d="M21.8455 6.01221H20.7886C21.0804 6.01221 21.317 6.2488 21.317 6.54069V9.92282H22.3739V6.54069C22.3739 6.2488 22.1373 6.01221 21.8455 6.01221Z" fill="#D49A04"/>
<path d="M18.7804 11.984H17.3008L16.7303 10.9535L17.3008 9.923L18.2838 9.44739L18.7804 9.923L19.3546 11.0425L18.7804 11.984Z" fill="#FEF1DA"/>
<path d="M19.8373 11.9835H18.7804V9.92251L19.0721 9.68567L19.8373 9.92251V11.9835Z" fill="#FAE2C0"/>
<path d="M18.7805 9.92277H17.3008L16.9605 7.96749L17.3008 6.01221H18.7805L19.3546 8.13639L18.7805 9.92277Z" fill="#FACD2F"/>
<path d="M18.7804 6.01221H19.8373V9.92277H18.7804V6.01221Z" fill="#D49A04"/>
<path d="M16.0326 11.9838H14.7642L14.5006 9.39667L14.7642 6.91063L15.4581 6.63245L16.2439 6.91063L16.7302 9.24519L16.0326 11.9838Z" fill="#FEF1DA"/>
<path d="M17.3008 11.9838H16.2439V6.91063L16.7723 6.63245L17.3008 6.91063V11.9838Z" fill="#FAE2C0"/>
<path d="M16.7303 5.03668L16.5082 3.50482L15.9393 3.03103L15.8356 3.01046L15.7951 3.0031L15.7494 3H15.2927C15.0008 3 14.7642 3.23659 14.7642 3.52848V6.91061H16.2439L16.7303 5.03668Z" fill="#FACD2F"/>
<path d="M16.7723 3H15.7154C16.0072 3 16.2438 3.23659 16.2438 3.52848V6.91061H17.3008V3.52848C17.3008 3.23659 17.0642 3 16.7723 3Z" fill="#D49A04"/>
<path d="M13.7073 11.984H12.2276L11.8346 10.9535L12.2276 9.923L13.0204 9.44739L13.7073 9.923L14.3457 11.168L13.7073 11.984Z" fill="#FEF1DA"/>
<path d="M14.7642 11.984H13.7073V9.923L14.2357 9.44739L14.7642 9.923V11.984Z" fill="#FAE2C0"/>
<path d="M13.7073 9.92277H12.2276L11.8346 7.96749L12.2276 6.01221H13.7073L14.2061 7.85805L13.7073 9.92277Z" fill="#FACD2F"/>
<path d="M13.7073 6.01221H14.7642V9.92277H13.7073V6.01221Z" fill="#D49A04"/>
<path d="M11.1707 11.984H9.69106V9.923L10.8183 9.39685L11.1707 9.923L11.3989 11.0601L11.1707 11.984Z" fill="#FEF1DA"/>
<path d="M12.2276 11.9834H11.1707V9.92244L11.6992 9.67615L12.2276 9.92244V11.9834Z" fill="#FAE2C0"/>
<path d="M11.1707 9.92277H9.69106V6.54069C9.69106 6.24885 9.92765 6.01221 10.2195 6.01221H11.1708L11.7619 8.19936L11.1707 9.92277Z" fill="#FACD2F"/>
<path d="M11.1707 6.01221H12.2276V9.92277H11.1707V6.01221Z" fill="#D49A04"/>
<path d="M16.0325 13.9794L10.023 16.0692L8.00018 21.0098V28.4717C8.00018 28.7636 8.23677 29.0002 8.52861 29.0002H23.5366C23.8284 29.0002 24.065 28.7636 24.065 28.4717V21.0098L21 15.514L16.0325 13.9794Z" fill="#918291"/>
<path d="M22.7968 28.4715C22.7968 28.7634 22.5602 28.9999 22.2684 28.9999H23.5367C23.8285 28.9999 24.0651 28.7634 24.0651 28.4715V21.0096L22.7968 18.7355V28.4715Z" fill="#7A6D79"/>
<path d="M22.2581 10.2938L21.9614 11.2432C21.8924 11.4638 21.6881 11.614 21.457 11.614H10.6081C10.3769 11.614 10.1726 11.4638 10.1037 11.2432L9.807 10.2938C9.73804 10.0732 9.53375 9.92297 9.30259 9.92297H8.52848C8.23664 9.92297 8 10.1596 8 10.4514V13.3051L16.0325 14.2204L24.065 13.3051V10.4514C24.065 10.1596 23.8284 9.92297 23.5365 9.92297H22.7624C22.5313 9.92292 22.327 10.0731 22.2581 10.2938Z" fill="#CBC4CC"/>
<path d="M23.5366 9.92285H22.7625C22.6742 9.92285 22.5899 9.94494 22.5154 9.98435C22.6827 10.0731 22.7967 10.2488 22.7967 10.4513V13.305L23.4309 13.6972L24.0651 13.305V10.4513C24.065 10.1594 23.8284 9.92285 23.5366 9.92285Z" fill="#B5ADB6"/>
<path d="M8.00012 21.0095L16.0325 15.9999L22.7968 20.2186L23.4551 17.3046L22.7968 13.3048H8.00012V21.0095Z" fill="#FACD2F"/>
<path d="M22.7968 13.3048V20.2186L24.065 21.0096H24.0651V13.3048H22.7968Z" fill="#D49A04"/>
<path d="M13.0627 20.3123L13.4402 20.6644L14.486 21.283L15.7277 21.5334L17.1225 21.0768L18.4788 20.3551L19.0962 19.1178L18.9489 17.2177L18.5954 16.275L17.8613 15.5136C17.3296 15.1854 16.7033 14.9956 16.0325 14.9956C14.1062 14.9956 12.5447 16.5571 12.5447 18.4834C12.5447 19.1542 12.7345 19.7805 13.0627 20.3123Z" fill="#FD8087"/>
<path d="M17.8613 15.5137C18.1895 16.0455 18.3793 16.6717 18.3793 17.3425C18.3793 19.2688 16.8177 20.8303 14.8915 20.8303C14.2207 20.8303 13.5944 20.6405 13.0626 20.3123C13.6769 21.3077 14.777 21.9713 16.0325 21.9713C17.9587 21.9713 19.5203 20.4098 19.5203 18.4835C19.5203 17.228 18.8567 16.1279 17.8613 15.5137Z" fill="#FE646F"/>
<path d="M19.3761 26.4829L19.6228 26.2141L19.6817 25.5402L19.3945 24.9621L19.1208 24.8885L19.0338 24.8781H11.6992C11.4657 24.8781 11.2764 25.0673 11.2764 25.3008V26.1463C11.2764 26.3798 11.4657 26.5691 11.6992 26.5691H18.9919H19.0575L19.1875 26.545L19.3761 26.4829Z" fill="#EAF6FF"/>
<path d="M20.3659 24.8782H18.9919C19.2254 24.8782 19.4147 25.0674 19.4147 25.3009V26.1464C19.4147 26.3799 19.2254 26.5692 18.9919 26.5692H20.3659C20.5994 26.5692 20.7887 26.3799 20.7887 26.1464V25.3009C20.7887 25.0674 20.5994 24.8782 20.3659 24.8782Z" fill="#D8ECFE"/>
<path d="M16.5711 18.4838L17.4809 17.574C17.6297 17.4252 17.6297 17.1841 17.4809 17.0354C17.3322 16.8866 17.091 16.8866 16.9423 17.0354L16.0326 17.9451L15.1228 17.0354C14.974 16.8866 14.7329 16.8866 14.5842 17.0354C14.4354 17.1841 14.4354 17.4253 14.5842 17.574L15.494 18.4838L14.5842 19.3936C14.4354 19.5423 14.4354 19.7835 14.5842 19.9321C14.6586 20.0065 14.7561 20.0437 14.8535 20.0437C14.951 20.0437 15.0485 20.0065 15.1229 19.9321L16.0326 19.0224L16.9424 19.9321C17.0168 20.0065 17.1143 20.0437 17.2117 20.0437C17.3092 20.0437 17.4067 20.0065 17.481 19.9321C17.6298 19.7834 17.6298 19.5422 17.481 19.3936L16.5711 18.4838Z" fill="#EAF6FF"/>
</svg>
