<svg width="32" height="32" viewBox="0 0 32 32" fill="none" xmlns="http://www.w3.org/2000/svg">
<path d="M23.9185 15.6142H21.3808V12.6606H23.9185C24.14 12.6606 24.3197 12.8402 24.3197 13.0618V15.2132C24.3197 15.4347 24.14 15.6142 23.9185 15.6142Z" fill="#756E78"/>
<path d="M19.5804 3H17.8184C17.4103 3 17.0794 3.33089 17.0794 3.73907V7.11871H20.3195V3.73907C20.3195 3.33089 19.9886 3 19.5804 3Z" fill="#F1F4F6"/>
<path d="M19.5804 3H18.7473C19.1555 3 19.4864 3.33089 19.4864 3.73907V6.07242H20.3195V3.73907C20.3195 3.33089 19.9886 3 19.5804 3Z" fill="#DFEAEF"/>
<path d="M17.0794 4.72571H20.3195V6.07253H17.0794V4.72571Z" fill="#D0E2E7"/>
<path d="M19.4864 4.72571H20.3195V6.07253H19.4864V4.72571Z" fill="#B4D0D5"/>
<path d="M20.9989 11.2443H16.4V6.21094C16.4 6.13451 16.4619 6.07251 16.5384 6.07251H20.8605C20.9369 6.07251 20.9989 6.13446 20.9989 6.21094V11.2443Z" fill="#756E78"/>
<path d="M20.8605 6.07251H20.0274C20.1039 6.07251 20.1659 6.13446 20.1659 6.21094V10.198H20.9989V6.21094C20.9989 6.13446 20.9369 6.07251 20.8605 6.07251Z" fill="#665E66"/>
<path d="M19.1466 9.17066H18.2523C18.0356 9.17066 17.86 8.99501 17.86 8.77832C17.86 8.56164 18.0356 8.38599 18.2523 8.38599H19.1466C19.3633 8.38599 19.5389 8.56164 19.5389 8.77832C19.5389 8.99501 19.3633 9.17066 19.1466 9.17066Z" fill="#665E66"/>
<path d="M21.9814 29.0001H10.1978C9.66273 29.0001 9.229 28.5663 9.229 28.0313V11.1668C9.229 10.6317 9.66278 10.198 10.1978 10.198H21.9814C22.5165 10.198 22.9502 10.6318 22.9502 11.1668V28.0313C22.9502 28.5663 22.5165 29.0001 21.9814 29.0001Z" fill="#DD636E"/>
<path d="M21.9814 10.1979H20.96C21.4951 10.1979 21.9288 10.6316 21.9288 11.1667V28.0311C21.9288 28.5662 21.4951 28.9999 20.96 28.9999H21.9814C22.5165 28.9999 22.9502 28.5662 22.9502 28.0311V11.1667C22.9502 10.6316 22.5165 10.1979 21.9814 10.1979Z" fill="#DA4A54"/>
<path d="M10.2753 18.659H8.36522C8.16352 18.659 8 18.4955 8 18.2938V12.6532C8 12.4515 8.16352 12.288 8.36522 12.288H10.2753V18.659Z" fill="#D0E2E7"/>
<path d="M11.0793 16.4985L12.0398 15.538C12.0811 15.4967 12.1043 15.4408 12.1043 15.3824V12.1956C12.1043 12.1372 12.0811 12.0813 12.0398 12.04L10.1978 10.198C9.66273 10.198 9.229 10.6318 9.229 11.1668V28.0313L10.9569 26.1493C10.9942 26.1087 11.0149 26.0556 11.0149 26.0005V16.654C11.0149 16.5957 11.038 16.5397 11.0793 16.4985Z" fill="#756E78"/>
<path d="M10.8372 12.9612C10.7369 12.9612 10.6364 12.9229 10.5598 12.8463L10.1196 12.4061C9.9664 12.2529 9.9664 12.0045 10.1196 11.8512C10.2729 11.698 10.5212 11.698 10.6745 11.8512L11.1147 12.2914C11.2679 12.4446 11.2679 12.693 11.1147 12.8463C11.038 12.9229 10.9376 12.9612 10.8372 12.9612Z" fill="#F1F4F6"/>
<path d="M10.8372 14.2179C10.7369 14.2179 10.6364 14.1796 10.5598 14.103L10.1196 13.6628C9.9664 13.5096 9.9664 13.2612 10.1196 13.1079C10.2729 12.9547 10.5212 12.9547 10.6745 13.1079L11.1147 13.5481C11.2679 13.7013 11.2679 13.9497 11.1147 14.103C11.038 14.1796 10.9376 14.2179 10.8372 14.2179Z" fill="#F1F4F6"/>
<path d="M10.8372 15.4746C10.7369 15.4746 10.6364 15.4363 10.5598 15.3597L10.1196 14.9195C9.9664 14.7663 9.9664 14.5179 10.1196 14.3647C10.2729 14.2115 10.5212 14.2115 10.6745 14.3647L11.1147 14.8048C11.2679 14.958 11.2679 15.2065 11.1147 15.3597C11.038 15.4363 10.9376 15.4746 10.8372 15.4746Z" fill="#F1F4F6"/>
<path d="M20.7844 22.8571V27.1599C20.7844 27.3037 20.6677 27.4204 20.5244 27.4204H19.6078C19.464 27.4204 19.3473 27.3037 19.3473 27.1599V22.8571C19.3473 22.7132 19.464 22.5966 19.6078 22.5966H20.5244C20.6677 22.5966 20.7844 22.7132 20.7844 22.8571Z" fill="#F1F4F6"/>
<path d="M19.3473 25.4382H20.7844V26.223H19.3473V25.4382Z" fill="#DFEAEF"/>
<path d="M19.3473 23.7946H20.7844V24.5793H19.3473V23.7946Z" fill="#DFEAEF"/>
</svg>
