<svg width="32" height="32" viewBox="0 0 32 32" fill="none" xmlns="http://www.w3.org/2000/svg">
<path d="M16 29C23.1797 29 29 23.1797 29 16C29 8.8203 23.1797 3 16 3C8.8203 3 3 8.8203 3 16C3 23.1797 8.8203 29 16 29Z" fill="#FFD93B"/>
<path d="M29 16C29 23.1825 23.1784 29 16 29C11.9131 29 8.265 27.115 5.88031 24.1616C8.11062 25.9653 10.9503 27.0419 14.0419 27.0419C21.2203 27.0419 27.0419 21.2244 27.0419 14.0419C27.0419 10.9503 25.9653 8.11062 24.1616 5.88031C27.1109 8.265 29 11.9131 29 16Z" fill="#F4C534"/>
<path d="M21.0066 23.6773C20.3599 24.0673 18.6195 22.3318 16.221 22.3107C13.8574 22.2896 12.0821 24.0681 11.4354 23.6773C10.6611 23.3621 11.9854 19.5839 16.221 19.5612C20.4566 19.5839 21.7809 23.3629 21.0066 23.6773Z" fill="#3E4347"/>
<path d="M22.8217 14.2491C22.8217 15.3939 21.8849 16.3307 20.7352 16.3307C19.5847 16.3307 18.6487 15.3939 18.6487 14.2491C18.6487 13.0937 19.5856 12.1626 20.7352 12.1626C21.8857 12.1626 22.8217 13.0937 22.8217 14.2491Z" fill="#3E4347"/>
<path d="M21.6904 13.072C21.4339 12.8493 21.111 12.8011 20.9692 12.9645C20.8274 13.1278 20.9204 13.4407 21.1769 13.6634C21.4334 13.8861 21.7563 13.9343 21.8981 13.7709C22.0399 13.6076 21.9469 13.2947 21.6904 13.072Z" fill="#5A5F63"/>
<path d="M13.3513 14.2491C13.3513 15.3939 12.4144 16.3307 11.2648 16.3307C10.1151 16.3307 9.17825 15.3939 9.17825 14.2491C9.17825 13.0937 10.1151 12.1626 11.2648 12.1626C12.4144 12.1626 13.3513 13.0937 13.3513 14.2491Z" fill="#3E4347"/>
<path d="M12.2191 13.0727C11.9626 12.85 11.6397 12.8019 11.4979 12.9652C11.3561 13.1285 11.4491 13.4414 11.7056 13.6641C11.9621 13.8868 12.285 13.935 12.4268 13.7717C12.5686 13.6083 12.4756 13.2954 12.2191 13.0727Z" fill="#5A5F63"/>
</svg>
