<svg width="32" height="32" viewBox="0 0 32 32" fill="none" xmlns="http://www.w3.org/2000/svg">
<path d="M16.8621 26.3104H13.2759C13.0284 26.3104 12.8276 26.1097 12.8276 25.8621C12.8276 25.6146 13.0284 25.4138 13.2759 25.4138H16.8621C17.1097 25.4138 17.3104 25.6146 17.3104 25.8621C17.3104 26.1097 17.1097 26.3104 16.8621 26.3104Z" fill="#73B0F4"/>
<path d="M16.8621 6.58636H13.2759C13.0284 6.58636 12.8276 6.38562 12.8276 6.13806C12.8276 5.8905 13.0284 5.68976 13.2759 5.68976H16.8621C17.1097 5.68976 17.3104 5.8905 17.3104 6.13806C17.3104 6.38562 17.1097 6.58636 16.8621 6.58636Z" fill="#73B0F4"/>
<path d="M20.4483 24.069C19.1848 25.1888 18.2923 26.667 17.8904 28.3069C17.7962 28.7115 17.4362 28.9984 17.0208 29H13.1172C12.7018 28.9984 12.3418 28.7115 12.2476 28.3069C11.8457 26.667 10.9533 25.1888 9.6897 24.069V7.93093C10.9533 6.81117 11.8457 5.33296 12.2476 3.69308C12.3418 3.28842 12.7018 3.00159 13.1172 3H17.0208C17.4362 3.00159 17.7962 3.28842 17.8904 3.69308C18.2923 5.33296 19.1848 6.81117 20.4483 7.93093V24.069Z" fill="#5E9CEA"/>
<path d="M22.6896 11.0692H24.0345C24.5296 11.0692 24.9309 11.4704 24.9309 11.9656V14.2071C24.9309 14.7022 24.5296 15.1035 24.0345 15.1035H22.6896V11.0692Z" fill="#424852"/>
<path d="M22.6896 17.3448H24.0345C24.5296 17.3448 24.9309 17.7461 24.9309 18.2412V19.1378C24.9309 19.6329 24.5296 20.0344 24.0345 20.0344H22.6896V17.3448Z" fill="#424852"/>
<path d="M9.68961 7.93073H20.4482C21.9336 7.93073 23.1378 9.13499 23.1378 10.6205V21.379C23.1378 22.8646 21.9336 24.0688 20.4482 24.0688H9.68961C8.20426 24.0688 7 22.8646 7 21.379V10.6205C7 9.13499 8.20426 7.93073 9.68961 7.93073Z" fill="#636C77"/>
<path d="M20.4483 24.0691C19.1839 25.1877 18.2909 26.6657 17.8886 28.3052C17.7966 28.7116 17.4355 29 17.019 29H15.6741C16.0908 29 16.4519 28.7116 16.5437 28.3052C16.9462 26.6657 17.839 25.1877 19.1034 24.0691H20.4483Z" fill="#4A88DA"/>
<path d="M20.4483 7.93093H19.1034C17.839 6.81236 16.9462 5.33435 16.5437 3.69487C16.4519 3.28842 16.0908 3 15.6741 3H17.019C17.4355 3 17.7966 3.28842 17.8886 3.69487C18.2909 5.33435 19.1839 6.81236 20.4483 7.93093Z" fill="#4A88DA"/>
<path d="M23.1378 10.6206V21.379C23.1378 22.8646 21.9335 24.0689 20.4482 24.0689H19.1033C19.5762 24.071 20.0407 23.9455 20.4482 23.7056C21.2805 23.2268 21.7933 22.3393 21.7929 21.379V10.6206C21.7933 9.66029 21.2805 8.77281 20.4482 8.29396C20.0407 8.05414 19.5762 7.92857 19.1033 7.93075H20.4482C21.1615 7.93075 21.8456 8.21422 22.3501 8.71865C22.8543 9.22309 23.1378 9.90725 23.1378 10.6206Z" fill="#586068"/>
<path d="M24.9308 11.9656V14.2071C24.9294 14.7016 24.5289 15.1021 24.0344 15.1035H23.1378C23.6323 15.1021 24.0328 14.7016 24.0344 14.2071V11.9656C24.0328 11.471 23.6323 11.0705 23.1378 11.0692H24.0344C24.5289 11.0705 24.9294 11.471 24.9308 11.9656Z" fill="#383E47"/>
<path d="M24.9308 18.2412V19.1378C24.9294 19.6323 24.5289 20.0328 24.0344 20.0344H23.1378C23.6323 20.0328 24.0328 19.6323 24.0344 19.1378V18.2412C24.0328 17.7467 23.6323 17.3462 23.1378 17.3448H24.0344C24.5289 17.3462 24.9294 17.7467 24.9308 18.2412Z" fill="#383E47"/>
<path d="M15.8912 19.1381C15.5815 19.151 15.2971 18.9685 15.1799 18.6816L13.4396 13.9514L12.1419 16.9231C12.0124 17.1889 11.7392 17.354 11.4439 17.345H9.68976C9.4422 17.345 9.24146 17.1443 9.24146 16.8967C9.24146 16.6492 9.4422 16.4484 9.68976 16.4484H11.3709L12.7529 13.2839C12.8913 13.0185 13.1688 12.8551 13.4684 12.8624C13.7677 12.8698 14.0369 13.0467 14.1623 13.3187L15.9025 18.05L17.0006 15.5397C17.1048 15.2977 17.3339 15.1329 17.5965 15.1113C17.8857 15.0656 18.1757 15.187 18.3463 15.4251C18.3559 15.4398 18.3652 15.455 18.3733 15.4699L18.8754 16.4484H20.8967C21.1442 16.4484 21.345 16.6492 21.345 16.8967C21.345 17.1443 21.1442 17.345 20.8967 17.345H18.8085C18.5546 17.3512 18.3142 17.2308 18.1666 17.0241C18.1567 17.0096 18.1476 16.9945 18.1392 16.9793L17.7139 16.1463L16.5964 18.7015C16.477 18.9778 16.199 19.1516 15.8983 19.1381H15.8912Z" fill="#F76C82"/>
</svg>
